<svg width="27" height="28" viewBox="0 0 27 28" fill="none" xmlns="http://www.w3.org/2000/svg">
<g id="Group 64">
<path id="Vector" d="M18.0642 0.611694C13.346 0.611694 9.48952 4.42683 9.27527 9.19574C5.96159 9.58018 3.40967 11.9841 3.40967 14.899H17.0072C17.0072 11.9987 14.4743 9.60451 11.1797 9.20061C11.3939 5.50227 14.3934 2.55819 18.0642 2.55819C21.7349 2.55819 24.9248 5.68232 24.9724 9.51205V25.9891C24.9724 26.5244 25.4009 26.9624 25.9246 26.9624C26.4484 26.9624 26.8768 26.5244 26.8768 25.9891V9.50232C26.815 4.60201 22.8633 0.611694 18.0642 0.611694Z" fill="#17182B"/>
<path id="Vector_2" d="M5.7614 16.2518C5.29482 16.0036 4.71873 16.1836 4.47592 16.6605L3.22853 19.0937C2.98571 19.5706 3.16187 20.1594 3.62845 20.4075C3.77129 20.4854 3.91888 20.5195 4.07123 20.5195C4.41403 20.5195 4.7473 20.3297 4.91394 19.9988L6.16133 17.5657C6.40414 17.0888 6.22322 16.5 5.7614 16.2518Z" fill="#17182B"/>
<path id="Vector_3" d="M2.88589 21.8577C2.41931 21.6096 1.84322 21.7896 1.60041 22.2665L0.695812 24.0329C0.452999 24.5098 0.629157 25.0987 1.09574 25.3468C1.23857 25.4247 1.38616 25.4588 1.53852 25.4588C1.88131 25.4588 2.21458 25.269 2.38122 24.9381L3.28582 23.1716C3.52863 22.6947 3.35247 22.1059 2.88589 21.8577Z" fill="#17182B"/>
<path id="Vector_4" d="M17.202 19.0937L15.9546 16.6606C15.7118 16.1837 15.1357 15.9987 14.6691 16.2518C14.2026 16.5 14.0216 17.0888 14.2692 17.5657L15.5166 19.9988C15.688 20.3297 16.0165 20.5195 16.3593 20.5195C16.5069 20.5195 16.6592 20.4854 16.8021 20.4076C17.2687 20.1594 17.4496 19.5706 17.202 19.0937Z" fill="#17182B"/>
<path id="Vector_5" d="M18.8306 22.2713C18.5878 21.7944 18.0117 21.6095 17.5451 21.8626C17.0785 22.1156 16.8976 22.6996 17.1452 23.1765L18.0498 24.9429C18.2212 25.2738 18.5497 25.4636 18.8925 25.4636C19.0401 25.4636 19.1924 25.4295 19.3353 25.3517C19.8018 25.1035 19.9828 24.5147 19.7352 24.0378L18.8306 22.2713Z" fill="#17182B"/>
<path id="Vector_6" d="M10.2081 17.0352C9.68435 17.0352 9.25586 17.4683 9.25586 18.0085V20.7531C9.25586 21.2883 9.67959 21.7263 10.2033 21.7263C10.727 21.7263 11.1555 21.2932 11.1555 20.7531V18.0085C11.1555 17.4732 10.7318 17.0352 10.2081 17.0352Z" fill="#17182B"/>
<path id="Vector_7" d="M10.1988 23.3662C10.7225 23.3662 11.151 23.8042 11.151 24.3395V26.3347C11.151 26.8699 10.7225 27.3079 10.1988 27.3079C9.67508 27.3079 9.24658 26.8699 9.24658 26.3347V24.3395C9.24658 23.8042 9.67508 23.3662 10.1988 23.3662Z" fill="#17182B"/>
</g>
</svg>
