<svg width="31" height="28" viewBox="0 0 31 28" fill="none" xmlns="http://www.w3.org/2000/svg">
<g id="Group 38">
<path id="Vector" d="M27.9022 11.8498C27.6713 10.6821 26.6478 9.83908 25.4563 9.83908H4.93862C3.74713 9.83908 2.72361 10.6821 2.49266 11.8498L0.0467124 24.3124C-0.252471 25.8466 0.923266 27.2761 2.49266 27.2761H27.9022C29.4716 27.2761 30.6474 25.8466 30.3482 24.3124L27.9022 11.8498Z" fill="#17182B"/>
<g id="Group">
<path id="Vector_2" d="M13.2055 0H6.13008C5.44015 0 4.88086 0.557966 4.88086 1.24625V5.57672C4.88086 6.265 5.44015 6.82297 6.13008 6.82297H13.2055C13.8954 6.82297 14.4547 6.265 14.4547 5.57672V1.24625C14.4547 0.557966 13.8954 0 13.2055 0Z" fill="#17182B"/>
<path id="Vector_3" d="M24.2646 0H17.1892C16.4992 0 15.9399 0.557966 15.9399 1.24625V5.57672C15.9399 6.265 16.4992 6.82297 17.1892 6.82297H24.2646C24.9545 6.82297 25.5138 6.265 25.5138 5.57672V1.24625C25.5138 0.557966 24.9545 0 24.2646 0Z" fill="#17182B"/>
</g>
</g>
</svg>
