<?xml version="1.0" encoding="UTF-8"?>
<svg id="Layer_2" data-name="Layer 2" xmlns="http://www.w3.org/2000/svg" viewBox="0 0 420.59 117.48">
  <defs>
    <style>
      .cls-1 {
        fill: #fff;
        stroke-width: 0px;
      }
    </style>
  </defs>
  <g id="Layer_2-2" data-name="Layer 2">
    <g>
      <g>
        <rect class="cls-1" y=".77" width="9.7" height="67.9"/>
        <polygon class="cls-1" points="84.11 56.59 59.65 .77 49.18 .77 79.05 68.67 88.66 68.67 118.44 .77 108.74 .77 84.11 56.59"/>
        <path class="cls-1" d="m212.91,9.84c-3.23-3.14-7.05-5.56-11.45-7.27-4.4-1.71-9.18-2.57-14.36-2.57s-10.06.87-14.45,2.62c-4.4,1.75-8.21,4.19-11.45,7.32-3.23,3.14-5.76,6.81-7.57,11.01s-2.72,8.8-2.72,13.77.91,9.57,2.72,13.77,4.33,7.87,7.57,11.01c3.23,3.14,7.06,5.58,11.49,7.32,4.43,1.75,9.23,2.62,14.4,2.62s9.96-.86,14.36-2.57c4.4-1.71,8.21-4.14,11.45-7.27,3.23-3.14,5.74-6.81,7.52-11.01s2.67-8.83,2.67-13.87-.89-9.59-2.67-13.82c-1.78-4.23-4.28-7.92-7.52-11.06h.01Zm-1.5,35.26c-1.33,3.17-3.17,5.93-5.53,8.29-2.36,2.36-5.14,4.19-8.34,5.48-3.2,1.29-6.71,1.94-10.52,1.94s-7.23-.65-10.43-1.94c-3.2-1.29-6-3.12-8.39-5.48-2.39-2.36-4.25-5.12-5.58-8.29-1.33-3.17-1.99-6.63-1.99-10.38s.66-7.19,1.99-10.33c1.32-3.14,3.18-5.9,5.58-8.29,2.39-2.39,5.19-4.23,8.39-5.53,3.2-1.29,6.68-1.94,10.43-1.94s7.32.65,10.52,1.94c3.2,1.29,5.98,3.14,8.34,5.53s4.2,5.16,5.53,8.29c1.32,3.14,1.99,6.58,1.99,10.33s-.66,7.21-1.99,10.38Z"/>
        <path class="cls-1" d="m309.72,45.19c4.2-1.87,7.44-4.57,9.7-8.1,2.26-3.52,3.4-7.74,3.4-12.66s-1.13-9.15-3.4-12.71c-2.26-3.56-5.5-6.27-9.7-8.15-4.2-1.88-9.28-2.81-15.23-2.81h-26.48v67.9h9.7v-20.66h16.78c1.49,0,2.93-.06,4.31-.18l14.6,20.84h10.57l-16.11-22.74c.63-.23,1.25-.47,1.85-.74h.01Zm-15.52-5.43h-16.49V9.2h16.49c6.21,0,10.91,1.33,14.11,3.98s4.8,6.4,4.8,11.25-1.6,8.62-4.8,11.3c-3.2,2.68-7.91,4.03-14.11,4.03h0Z"/>
        <polygon class="cls-1" points="420.59 .77 410.99 .77 389.17 36.59 367.44 .77 357.06 .77 384.02 45.02 384.02 68.67 393.62 68.67 393.62 45.17 420.59 .77"/>
      </g>
      <g>
        <path class="cls-1" d="m117.51,110.75c.77-.72,1.16-1.65,1.16-2.81s-.39-2.11-1.16-2.83-1.91-1.08-3.42-1.08h-4.6v13.19h1.64v-5.4h2.35l3.41,5.4h2.12l-3.77-5.48c.95-.14,1.71-.47,2.27-.99h0Zm-6.38-5.31h2.96c.94,0,1.66.23,2.16.7.49.47.74,1.1.74,1.9s-.26,1.41-.77,1.9-1.27.73-2.25.73h-2.84v-5.23Z"/>
        <polygon class="cls-1" points="130.95 117.22 139.07 117.22 139.07 115.79 132.58 115.79 132.58 111.28 138.7 111.28 138.7 109.87 132.58 109.87 132.58 105.44 139.07 105.44 139.07 104.03 130.95 104.03 130.95 117.22"/>
        <path class="cls-1" d="m154.34,104.03l-4.54,13.19h1.72l1.15-3.38h5.25l1.11,3.38h1.72l-4.43-13.19h-2,.02Zm-1.24,8.53l2.21-6.53,2.21,6.53h-4.42Z"/>
        <polygon class="cls-1" points="173.69 104.03 172.05 104.03 172.05 117.22 179.57 117.22 179.57 115.79 173.69 115.79 173.69 104.03"/>
        <polygon class="cls-1" points="204.06 117.22 212.19 117.22 212.19 115.79 205.7 115.79 205.7 111.28 211.81 111.28 211.81 109.87 205.7 109.87 205.7 105.44 212.19 105.44 212.19 104.03 204.06 104.03 204.06 117.22"/>
        <path class="cls-1" d="m230.54,110.19l-2.73-.94c-.65-.22-1.13-.48-1.43-.76s-.46-.67-.46-1.15c0-.59.24-1.07.72-1.46.48-.38,1.16-.58,2.03-.58s1.51.17,1.98.51.75.81.86,1.42h1.62c-.11-1.04-.55-1.87-1.3-2.49-.76-.62-1.81-.93-3.15-.93-1.45,0-2.57.32-3.35.97-.79.64-1.18,1.48-1.18,2.5,0,.91.28,1.62.84,2.12s1.39.95,2.48,1.34l2.33.82c.67.22,1.18.5,1.52.85s.51.8.51,1.36c0,.4-.13.76-.38,1.1-.26.33-.62.6-1.09.8-.47.2-1.02.3-1.66.3-.59,0-1.13-.1-1.63-.29s-.9-.49-1.2-.88c-.3-.4-.45-.9-.45-1.52h-1.6c.01.92.25,1.69.69,2.31.45.62,1.04,1.09,1.77,1.41.73.32,1.54.48,2.42.48,1.06,0,1.95-.17,2.68-.5.73-.34,1.28-.79,1.65-1.35.37-.57.56-1.2.56-1.9,0-.9-.28-1.64-.82-2.21-.55-.57-1.3-1.01-2.24-1.32h.01Z"/>
        <polygon class="cls-1" points="243.8 105.44 248.1 105.44 248.1 117.22 249.74 117.22 249.74 105.44 254.07 105.44 254.07 104.03 243.8 104.03 243.8 105.44"/>
        <path class="cls-1" d="m267.02,104.03l-4.54,13.19h1.72l1.16-3.38h5.25l1.11,3.38h1.72l-4.43-13.19h-2,.01Zm-1.24,8.53l2.21-6.53,2.21,6.53h-4.42Z"/>
        <polygon class="cls-1" points="281.87 105.44 286.18 105.44 286.18 117.22 287.82 117.22 287.82 105.44 292.14 105.44 292.14 104.03 281.87 104.03 281.87 105.44"/>
        <polygon class="cls-1" points="311.09 105.44 311.09 104.03 302.97 104.03 302.97 117.22 311.09 117.22 311.09 115.79 304.61 115.79 304.61 111.28 310.72 111.28 310.72 109.87 304.61 109.87 304.61 105.44 311.09 105.44"/>
      </g>
    </g>
  </g>
</svg>