<svg width="111" height="41" viewBox="0 0 111 41" fill="none" xmlns="http://www.w3.org/2000/svg">
<g clip-path="url(#clip0_93_34)">
<path d="M82.1292 30.3762H81.666V34.0944H82.1292C82.6433 34.0944 83.0709 33.9172 83.4357 33.5491C83.6206 33.3634 83.7581 33.1623 83.848 32.9493C83.9362 32.738 83.9803 32.496 83.9803 32.2336C83.9803 31.719 83.8022 31.2913 83.4357 30.9232C83.0692 30.5534 82.6416 30.3745 82.1292 30.3745V30.3762Z" fill="white"/>
<path d="M34.2074 30.596C34.1378 30.5262 34.0598 30.4734 33.9715 30.4342C33.8799 30.395 33.7849 30.3762 33.6848 30.3762H32.9399V31.8673H33.6848C33.79 31.8673 33.885 31.8485 33.9732 31.8093C34.0666 31.7701 34.1429 31.7173 34.2057 31.6508C34.2753 31.5793 34.3295 31.4992 34.3703 31.4055C34.4059 31.3203 34.4246 31.2248 34.4246 31.1243C34.4246 31.0238 34.4059 30.9232 34.3686 30.8346C34.3279 30.7426 34.2753 30.6642 34.2074 30.596Z" fill="white"/>
<path d="M41.3301 30.3762C41.0705 30.3762 40.8296 30.4205 40.6158 30.5108C40.4054 30.6012 40.2035 30.7392 40.0203 30.9249C39.8353 31.1107 39.7013 31.3066 39.6113 31.5213C39.5231 31.7309 39.479 31.9712 39.479 32.2353C39.479 32.7551 39.6555 33.1862 40.0203 33.5508C40.385 33.9189 40.8126 34.0961 41.3301 34.0961C41.8476 34.0961 42.2735 33.9172 42.64 33.5508C43.0048 33.1862 43.1812 32.7551 43.1812 32.2353C43.1812 31.7156 43.0048 31.2896 42.64 30.9249C42.2735 30.5551 41.8442 30.3762 41.3301 30.3762Z" fill="white"/>
<path d="M106.35 0H4.27062C1.91219 0 0 1.92045 0 4.28906V36.1801C0 38.5488 1.91219 40.4692 4.27062 40.4692H106.35C108.708 40.4692 110.621 38.5488 110.621 36.1801V4.28906C110.621 1.92045 108.708 0 106.35 0ZM28.6235 32.801C28.201 33.2219 27.6869 33.4366 27.0931 33.4366H26.6282V34.7385C26.6282 34.914 26.5637 35.0725 26.4399 35.1952C26.3177 35.3179 26.1599 35.3844 25.9851 35.3844C25.8104 35.3844 25.6543 35.3196 25.5304 35.1952C25.4083 35.0742 25.3421 34.9157 25.3421 34.7385V29.7287C25.3421 29.64 25.3591 29.5548 25.3913 29.4782C25.4218 29.4032 25.4659 29.335 25.5253 29.2737C25.5847 29.2123 25.6526 29.1663 25.7306 29.1339C25.8104 29.0999 25.8952 29.0845 25.9851 29.0845H27.0931C27.2865 29.0845 27.4782 29.1118 27.6632 29.1629C27.8532 29.2174 28.0263 29.2907 28.1824 29.3844C28.3402 29.4782 28.4878 29.5923 28.6201 29.7235C28.7576 29.8599 28.8712 30.0081 28.9629 30.1666C29.0579 30.3302 29.1325 30.504 29.1834 30.6846C29.2377 30.8652 29.2632 31.0612 29.2632 31.2606C29.2632 31.8553 29.0477 32.3733 28.6218 32.801H28.6235ZM35.938 34.9958C35.9075 35.0708 35.8617 35.139 35.8023 35.1986C35.7412 35.26 35.6717 35.306 35.5919 35.3383C35.5139 35.369 35.4307 35.3861 35.3459 35.3861C35.1202 35.3861 34.9319 35.2804 34.7996 35.081L33.6051 33.1606H32.94V34.7402C32.94 34.9157 32.8755 35.0742 32.7533 35.1969C32.5073 35.444 32.0882 35.444 31.8422 35.1969C31.72 35.0742 31.6539 34.9157 31.6539 34.7402V29.7304C31.6539 29.6417 31.6708 29.5565 31.7031 29.4799C31.7319 29.4066 31.7777 29.3384 31.8388 29.2754C31.8999 29.2123 31.9694 29.1663 32.0458 29.1339C32.1204 29.1016 32.2053 29.0845 32.2986 29.0845H33.6848C33.9631 29.0845 34.2278 29.1391 34.4755 29.2464C34.7198 29.3538 34.9353 29.502 35.1168 29.6861C35.3018 29.8718 35.446 30.0899 35.5512 30.3319C35.6581 30.5756 35.7141 30.8431 35.7141 31.1226C35.7141 31.3049 35.6903 31.4838 35.6462 31.6525C35.6004 31.8263 35.5325 31.9916 35.4426 32.145C35.3527 32.2966 35.2407 32.4398 35.1084 32.571C35.0388 32.6409 34.9641 32.7039 34.881 32.767L35.8922 34.3892C35.9601 34.5068 35.9923 34.6209 35.9923 34.7385C35.9923 34.8305 35.9754 34.9174 35.9431 34.9941L35.938 34.9958ZM43.5461 34.4659C42.937 35.0776 42.1921 35.3878 41.3302 35.3878C40.4683 35.3878 39.72 35.0776 39.1092 34.4659C38.5001 33.8524 38.193 33.1026 38.193 32.2353C38.193 31.3679 38.5018 30.6216 39.1092 30.0098C39.7217 29.3964 40.4683 29.0845 41.3302 29.0845C42.1921 29.0845 42.9336 29.3947 43.5461 30.0098C43.8532 30.3183 44.084 30.6591 44.2367 31.0254C44.3894 31.3935 44.4674 31.7991 44.4674 32.2336C44.4674 33.0975 44.1569 33.849 43.5461 34.4642V34.4659ZM50.5909 30.1887C50.4687 30.3114 50.3109 30.3779 50.1361 30.3779H48.979V34.7419C48.979 34.9192 48.9128 35.0776 48.7889 35.2003C48.6668 35.323 48.5107 35.3878 48.3359 35.3878C48.1612 35.3878 48.0034 35.323 47.8812 35.1986C47.759 35.0759 47.6929 34.9174 47.6929 34.7419V30.3779H46.5357C46.3626 30.3779 46.2065 30.3131 46.081 30.1904C45.9588 30.0661 45.8927 29.9076 45.8927 29.7321C45.8927 29.5565 45.9571 29.3998 46.0793 29.2754C46.2048 29.1527 46.3626 29.0862 46.534 29.0862H50.1361C50.3109 29.0862 50.467 29.151 50.5909 29.2754C50.713 29.3981 50.7792 29.5565 50.7792 29.7321C50.7792 29.9076 50.7147 30.0661 50.5909 30.1887ZM55.9898 31.5912C56.1645 31.5912 56.3223 31.6559 56.4445 31.7803C56.5667 31.903 56.6328 32.0615 56.6328 32.237C56.6328 32.4125 56.5684 32.571 56.4445 32.6937C56.3223 32.8164 56.1645 32.8828 55.9898 32.8828H54.1387V34.0961H56.8195C56.9942 34.0961 57.152 34.1609 57.2742 34.2853C57.3964 34.4079 57.4625 34.5664 57.4625 34.7419C57.4625 34.9174 57.3981 35.0759 57.2742 35.1986C57.152 35.3213 56.9942 35.3878 56.8195 35.3878H53.4956C53.4057 35.3878 53.3209 35.3707 53.2445 35.3383C53.1648 35.3043 53.0952 35.2566 53.0375 35.1952C52.9815 35.1407 52.9357 35.0708 52.9035 34.9941C52.8712 34.9174 52.8543 34.8322 52.8543 34.7402V29.7304C52.8543 29.6435 52.8712 29.56 52.9035 29.4799C52.934 29.4049 52.9781 29.3367 53.0375 29.2754C53.0969 29.214 53.1648 29.168 53.2428 29.1356C53.3226 29.1016 53.4074 29.0862 53.4973 29.0862H56.8212C56.9959 29.0862 57.1537 29.151 57.2759 29.2754C57.3981 29.3981 57.4642 29.5565 57.4642 29.7321C57.4642 29.9076 57.3998 30.0661 57.2759 30.1887C57.1537 30.3114 56.9959 30.3779 56.8212 30.3779H54.1404V31.5912H55.9915H55.9898ZM61.063 33.5508C61.4261 33.9189 61.8553 34.0961 62.3745 34.0961C62.8174 34.0961 63.1957 33.9632 63.5317 33.6888C63.6538 33.6036 63.776 33.5661 63.9117 33.561C64.0068 33.5644 64.0916 33.5798 64.1747 33.6156C64.246 33.6479 64.3105 33.6905 64.3664 33.7434C64.4292 33.803 64.4767 33.8729 64.5107 33.953C64.5446 34.0296 64.5633 34.1166 64.5633 34.2069C64.5633 34.3739 64.4971 34.5306 64.3732 34.6618C63.7675 35.1509 63.1041 35.3861 62.3762 35.3861C61.5126 35.3861 60.766 35.0759 60.1569 34.4642C59.5478 33.8507 59.239 33.1009 59.239 32.2336C59.239 31.3662 59.5478 30.6182 60.1569 30.0081C60.7677 29.3947 61.516 29.0828 62.3762 29.0828C63.116 29.0828 63.7913 29.3299 64.3834 29.8156C64.4835 29.911 64.5819 30.0524 64.5819 30.2825C64.5819 30.3745 64.5633 30.458 64.531 30.5381C64.5005 30.6131 64.4547 30.6812 64.3953 30.7409C64.341 30.7988 64.2697 30.8465 64.19 30.8789C63.9592 30.9658 63.7064 30.9317 63.5045 30.7545C63.3569 30.6369 63.1805 30.5398 62.9887 30.4716C62.7987 30.4052 62.5917 30.3711 62.3762 30.3711C61.8587 30.3711 61.4294 30.55 61.0647 30.9198C60.7016 31.2827 60.5268 31.7104 60.5268 32.2302C60.5268 32.7499 60.7016 33.1827 61.0647 33.5457L61.063 33.5508ZM71.082 30.1887C70.9599 30.3114 70.8038 30.3762 70.629 30.3762H69.4719V34.7402C69.4719 34.9157 69.4074 35.0742 69.2835 35.1969C69.1614 35.3196 69.0036 35.3861 68.8288 35.3861C68.654 35.3861 68.4946 35.3213 68.3741 35.1952C68.2519 35.0742 68.1858 34.9157 68.1858 34.7385V30.3745H67.0286C66.8538 30.3745 66.6977 30.3097 66.5739 30.1853C66.4517 30.0626 66.3855 29.9042 66.3855 29.7287C66.3855 29.5531 66.45 29.3964 66.5739 29.272C66.696 29.1493 66.8538 29.0828 67.0286 29.0828H70.6307C70.8055 29.0828 70.9616 29.1476 71.0854 29.272C71.2076 29.393 71.2738 29.5514 71.2738 29.7287C71.2738 29.9059 71.2093 30.0661 71.0837 30.187L71.082 30.1887ZM76.6014 31.5895C76.7762 31.5895 76.934 31.6542 77.0562 31.7786C77.1783 31.9013 77.2445 32.0598 77.2445 32.2353C77.2445 32.4108 77.18 32.5693 77.0562 32.692C76.934 32.8147 76.7762 32.8811 76.6014 32.8811H74.7503V34.0944H77.4311C77.6059 34.0944 77.7637 34.1592 77.8858 34.2836C78.008 34.4062 78.0742 34.5647 78.0742 34.7402C78.0742 34.9157 78.0097 35.0742 77.8858 35.1969C77.7637 35.3196 77.6059 35.3861 77.4311 35.3861H74.1073C74.0173 35.3861 73.9325 35.369 73.8545 35.3366C73.7747 35.3026 73.7052 35.2548 73.6475 35.1935C73.5915 35.139 73.5457 35.0691 73.5134 34.9924C73.4812 34.9157 73.4642 34.8305 73.4642 34.7385V29.7287C73.4642 29.6417 73.4812 29.5583 73.5134 29.4782C73.544 29.4032 73.5881 29.335 73.6475 29.2737C73.7068 29.2123 73.7747 29.1663 73.8528 29.1339C73.9325 29.0999 74.0173 29.0845 74.1073 29.0845H77.4311C77.6059 29.0845 77.7637 29.1493 77.8858 29.2737C78.008 29.3964 78.0742 29.5548 78.0742 29.7304C78.0742 29.9059 78.0097 30.0643 77.8858 30.187C77.7637 30.3097 77.6059 30.3762 77.4311 30.3762H74.7503V31.5895H76.6014ZM84.3452 34.4642C83.7344 35.0759 82.9896 35.3861 82.1293 35.3861H81.0231C80.9331 35.3861 80.85 35.3673 80.7703 35.3332C80.6956 35.3026 80.626 35.2549 80.5667 35.1969C80.5107 35.1424 80.4615 35.0725 80.4292 34.9941C80.3953 34.9174 80.3766 34.8305 80.3766 34.7402V29.7304C80.3766 29.64 80.3953 29.5548 80.4309 29.4748C80.4632 29.3998 80.5107 29.3299 80.5717 29.2703C80.6277 29.2157 80.6939 29.1731 80.7686 29.1391C80.8517 29.1033 80.9348 29.0845 81.0248 29.0845H82.131C82.9913 29.0845 83.7361 29.3947 84.3469 30.0098C84.6506 30.3165 84.8848 30.6574 85.0375 31.0254C85.1902 31.3935 85.2682 31.8008 85.2682 32.2353C85.2682 33.1009 84.9594 33.8507 84.3469 34.4659L84.3452 34.4642ZM107.042 19.7004C107.042 22.0622 105.118 23.9946 102.766 23.9946H7.86426C5.50244 23.9946 3.58855 22.0724 3.58855 19.7004V7.89992C3.58855 5.53983 5.49395 3.62449 7.84559 3.62449H102.766C105.128 3.62449 107.042 5.54665 107.042 7.91867V19.7004Z" fill="white"/>
<path d="M27.7126 30.6318C27.6329 30.5517 27.5379 30.4887 27.4293 30.441C27.3207 30.3967 27.2087 30.3745 27.0933 30.3745H26.6284V32.1433H27.0933C27.2155 32.1433 27.3241 32.1212 27.4276 32.0751C27.5379 32.0274 27.6295 31.9644 27.7109 31.8843C27.7907 31.8059 27.8551 31.7088 27.9043 31.5997C27.9485 31.4958 27.9722 31.3799 27.9722 31.2589C27.9722 31.1379 27.9502 31.0203 27.9026 30.913C27.8551 30.8056 27.7907 30.7085 27.7109 30.6301L27.7126 30.6318Z" fill="white"/>
<path d="M32.5872 16.3093C32.482 16.3093 32.3955 16.2224 32.3955 16.1167V9.25457C32.3955 9.14892 32.482 9.06201 32.5872 9.06201C32.6924 9.06201 32.779 9.14892 32.779 9.25457V16.1167C32.779 16.2224 32.6924 16.3093 32.5872 16.3093Z" fill="white"/>
<path d="M17.6734 11.7152V11.8055C17.8973 11.6249 18.1434 11.4868 18.4064 11.3897C18.671 11.2926 18.9527 11.2449 19.2513 11.2449C19.3837 11.2449 19.5245 11.2534 19.6772 11.2721C19.8299 11.2909 19.969 11.3233 20.0963 11.3693C20.2235 11.417 20.3287 11.48 20.4119 11.5618C20.4967 11.6419 20.5391 11.7476 20.5391 11.8788C20.5391 11.9452 20.5272 12.0066 20.5001 12.0645C20.4746 12.1207 20.4407 12.1719 20.4 12.2162C20.3576 12.2605 20.3084 12.2929 20.2507 12.3167C20.193 12.3406 20.1319 12.3525 20.0657 12.3525C20.0097 12.3525 19.9436 12.3355 19.8689 12.3031C19.6789 12.2281 19.4736 12.1906 19.2513 12.1906C19.029 12.1906 18.8271 12.2332 18.6354 12.315C18.4437 12.3985 18.2757 12.511 18.1349 12.6541C17.9924 12.7973 17.8787 12.966 17.7972 13.1585C17.7158 13.3511 17.6734 13.5573 17.6734 13.7771V15.839C17.6734 15.9685 17.6276 16.0792 17.5359 16.1712C17.446 16.2633 17.3357 16.3076 17.2051 16.3076C17.0744 16.3076 16.9608 16.2616 16.8708 16.1712C16.7792 16.0792 16.7334 15.9685 16.7334 15.839V11.7186C16.7334 11.5891 16.7792 11.4766 16.8708 11.3863C16.9625 11.2943 17.0727 11.25 17.2051 11.25C17.3374 11.25 17.4443 11.2943 17.5359 11.3863C17.6276 11.4783 17.6734 11.5891 17.6734 11.7186" fill="white"/>
<path d="M15.6642 11.7118C15.6642 11.5823 15.6184 11.4715 15.5268 11.3795C15.4352 11.2875 15.3249 11.2415 15.1959 11.2415C15.067 11.2415 14.9516 11.2875 14.86 11.3795C14.7684 11.4715 14.7243 11.5823 14.7243 11.7118V11.8021C14.692 11.7782 14.6598 11.7544 14.6258 11.7305C14.4341 11.5874 14.2305 11.4766 14.015 11.3965C14.0065 11.3931 13.9981 11.3897 13.9913 11.3863C13.7266 11.2943 13.4449 11.2449 13.1446 11.2449C12.449 11.2449 11.8551 11.4902 11.3631 11.9844C10.871 12.4786 10.625 13.075 10.625 13.7737C10.625 14.4723 10.871 15.0687 11.3631 15.5629C11.8551 16.0554 12.449 16.3042 13.1446 16.3042C13.4449 16.3042 13.7266 16.2564 13.9913 16.1593C14.2543 16.0622 14.5003 15.9242 14.7243 15.7435V15.8338C14.7243 15.9633 14.7701 16.0741 14.86 16.1661C14.9516 16.2581 15.0636 16.3042 15.1959 16.3042C15.3283 16.3042 15.4352 16.2581 15.5268 16.1661C15.6184 16.0741 15.6642 15.9633 15.6642 15.8338V13.7702V11.7101V11.7118ZM14.6004 14.3871C14.5173 14.578 14.407 14.745 14.2627 14.8898C14.1202 15.0346 13.9523 15.1488 13.7622 15.234C13.5705 15.3192 13.3635 15.3601 13.1446 15.3601C12.9257 15.3601 12.717 15.3192 12.5236 15.234C12.3319 15.1505 12.1656 15.0363 12.0248 14.8932C11.884 14.7501 11.772 14.5814 11.6888 14.3888C11.6074 14.1963 11.565 13.9918 11.565 13.7737C11.565 13.5555 11.6074 13.3528 11.6888 13.1585C11.772 12.9659 11.884 12.7972 12.0248 12.6541C12.1656 12.511 12.3319 12.3968 12.5236 12.3133C12.7153 12.2298 12.9223 12.1872 13.1446 12.1872C13.3669 12.1872 13.5705 12.2298 13.7622 12.3133C13.9539 12.3985 14.1202 12.5127 14.2627 12.6575C14.4053 12.8024 14.5173 12.9694 14.6004 13.1602C14.6835 13.3528 14.7243 13.5572 14.7243 13.7737C14.7243 13.9901 14.6835 14.1946 14.6004 14.3871Z" fill="white"/>
<path d="M29.0053 11.7118C29.0053 11.5823 28.9595 11.4715 28.8679 11.3795C28.7762 11.2875 28.6659 11.2415 28.537 11.2415C28.408 11.2415 28.2927 11.2875 28.201 11.3795C28.1094 11.4715 28.0636 11.5823 28.0636 11.7118V11.8021C28.028 11.7731 27.9907 11.7476 27.955 11.722C27.7667 11.584 27.5665 11.4749 27.3561 11.3982C27.3476 11.3948 27.3391 11.3897 27.3306 11.388C27.0659 11.296 26.7843 11.2466 26.484 11.2466C25.7883 11.2466 25.1945 11.4919 24.7024 11.9861C24.2104 12.4803 23.9644 13.0767 23.9644 13.7754C23.9644 14.474 24.2104 15.0704 24.7024 15.5646C25.1945 16.0571 25.7883 16.3059 26.484 16.3059C26.7843 16.3059 27.0659 16.2581 27.3306 16.161C27.5936 16.0639 27.8379 15.9259 28.0636 15.7452V15.8355C28.0636 15.965 28.1111 16.0758 28.201 16.1678C28.2927 16.2598 28.4046 16.3059 28.537 16.3059C28.6693 16.3059 28.7745 16.2598 28.8679 16.1678C28.9595 16.0758 29.0053 15.965 29.0053 15.8355V13.772V11.7118ZM27.9414 14.3871C27.86 14.578 27.7463 14.745 27.6038 14.8898C27.4613 15.0346 27.295 15.1488 27.1033 15.234C26.9115 15.3192 26.7062 15.3601 26.4857 15.3601C26.2651 15.3601 26.0564 15.3192 25.8647 15.234C25.6729 15.1505 25.5067 15.0363 25.3658 14.8932C25.225 14.7501 25.1147 14.5814 25.0316 14.3888C24.9484 14.1963 24.9077 13.9918 24.9077 13.7737C24.9077 13.5555 24.9484 13.3528 25.0316 13.1585C25.1147 12.9659 25.2267 12.7972 25.3658 12.6541C25.5067 12.511 25.6729 12.3968 25.8647 12.3133C26.0564 12.2298 26.2634 12.1872 26.4857 12.1872C26.7079 12.1872 26.9098 12.2298 27.1033 12.3133C27.295 12.3985 27.463 12.5127 27.6038 12.6575C27.7463 12.8024 27.86 12.9694 27.9414 13.1602C28.0246 13.3528 28.0653 13.5572 28.0653 13.7737C28.0653 13.9901 28.0246 14.1946 27.9414 14.3871Z" fill="white"/>
<path d="M21.3787 11.2381V9.53234C21.3787 9.40453 21.4245 9.29377 21.5161 9.20175C21.606 9.10973 21.718 9.06543 21.8486 9.06543C21.9793 9.06543 22.0879 9.10973 22.1795 9.20175C22.2694 9.29377 22.3152 9.40453 22.3152 9.53234V14.4655C22.3152 15.0636 22.6156 15.3619 23.2111 15.3619C23.34 15.3619 23.4486 15.4079 23.5386 15.4999C23.6285 15.5902 23.6743 15.6805 23.6743 15.81C23.6743 15.9395 23.6302 16.0741 23.5386 16.1662C23.4486 16.2582 23.34 16.3042 23.2111 16.3042C21.9895 16.3042 21.377 15.6907 21.377 14.4655V11.2381H21.3787Z" fill="white"/>
<path d="M38.6922 16.3059C38.0899 16.3059 37.5639 16.1201 37.1143 15.7504V18.0048C37.1143 18.1411 37.0685 18.2519 36.9769 18.3422C36.8852 18.4308 36.7733 18.4751 36.6426 18.4751C36.512 18.4751 36.3966 18.4308 36.3084 18.3422C36.2201 18.2536 36.1743 18.1411 36.1743 18.0048V13.7754C36.1743 13.0767 36.4203 12.4803 36.9124 11.9861C37.4044 11.492 37.9983 11.2449 38.6939 11.2449C39.3896 11.2449 39.9766 11.492 40.4755 11.9861C40.7215 12.2298 40.9047 12.5025 41.0286 12.8024C41.1508 13.1023 41.2135 13.4277 41.2135 13.7754C41.2135 14.4791 40.9675 15.0773 40.4755 15.5646C40.2244 15.8151 39.9495 16.0008 39.6543 16.1218C39.359 16.2445 39.0384 16.3042 38.6939 16.3042L38.6922 16.3059ZM37.1143 13.7754C37.1143 13.9918 37.155 14.1963 37.2382 14.3888C37.3213 14.5814 37.4316 14.7501 37.5741 14.8932C37.7149 15.0364 37.8812 15.1505 38.0729 15.234C38.2647 15.3192 38.4717 15.3601 38.6939 15.3601C38.9162 15.3601 39.1181 15.3175 39.3098 15.234C39.5016 15.1505 39.6695 15.0364 39.8121 14.8915C39.9546 14.7467 40.0666 14.578 40.1497 14.3871C40.2329 14.1963 40.2736 13.9918 40.2736 13.7754C40.2736 13.559 40.2329 13.3545 40.1497 13.1636C40.0666 12.9728 39.9546 12.8041 39.8121 12.6609C39.6695 12.5161 39.5033 12.4019 39.3098 12.3167C39.1181 12.2332 38.9128 12.1906 38.6939 12.1906C38.4751 12.1906 38.2664 12.2332 38.0729 12.3167C37.8812 12.4002 37.7149 12.5144 37.5741 12.6575C37.4333 12.8007 37.3213 12.9694 37.2382 13.1619C37.155 13.3545 37.1143 13.559 37.1143 13.7771V13.7754Z" fill="white"/>
<path d="M42.9698 11.7152V11.8055C43.1937 11.6249 43.4398 11.4851 43.7027 11.3897C43.9674 11.2926 44.2491 11.2449 44.5494 11.2449C44.6817 11.2449 44.8226 11.2534 44.9753 11.2721C45.1263 11.2909 45.2654 11.3233 45.3927 11.3693C45.5199 11.4153 45.6251 11.48 45.71 11.5618C45.7931 11.6436 45.8355 11.7476 45.8355 11.8771C45.8355 11.9435 45.8236 12.0049 45.7982 12.0628C45.7727 12.1207 45.7388 12.1702 45.6964 12.2145C45.654 12.2571 45.6048 12.2912 45.5488 12.315C45.4911 12.3389 45.43 12.3508 45.3638 12.3508C45.3078 12.3508 45.2417 12.3338 45.167 12.3014C44.977 12.2264 44.7734 12.1889 44.5511 12.1889C44.3288 12.1889 44.1269 12.2298 43.9352 12.3133C43.7435 12.3968 43.5755 12.5093 43.433 12.6524C43.2904 12.7955 43.1785 12.9642 43.0953 13.1568C43.0122 13.3494 42.9715 13.5555 42.9715 13.7754V15.8356C42.9715 15.9651 42.9256 16.0758 42.834 16.1678C42.7424 16.2599 42.6321 16.3059 42.5032 16.3059C42.3742 16.3059 42.2588 16.2599 42.1672 16.1678C42.0756 16.0758 42.0298 15.9651 42.0298 15.8356V11.7152C42.0298 11.5857 42.0756 11.4749 42.1672 11.3829C42.2588 11.2909 42.3708 11.2449 42.5032 11.2449C42.6355 11.2449 42.7424 11.2909 42.834 11.3829C42.9256 11.4749 42.9715 11.5857 42.9715 11.7152H42.9698Z" fill="white"/>
<path d="M51.0563 13.7754C51.0563 14.4791 50.8103 15.0773 50.3183 15.5646C49.8211 16.0588 49.2273 16.3059 48.5367 16.3059C47.8461 16.3059 47.2472 16.0588 46.7552 15.5646C46.2631 15.0704 46.0171 14.474 46.0171 13.7754C46.0171 13.0767 46.2631 12.4803 46.7552 11.9861C47.2472 11.492 47.8411 11.2449 48.5367 11.2449C49.2324 11.2449 49.8211 11.492 50.3183 11.9861C50.5643 12.2332 50.7475 12.5059 50.8697 12.8041C50.9902 13.1023 51.0529 13.426 51.0563 13.7754ZM48.5367 12.1889C48.3144 12.1889 48.1091 12.2315 47.9157 12.315C47.724 12.3985 47.5577 12.5127 47.4169 12.6558C47.276 12.799 47.1641 12.9677 47.0809 13.1602C46.9978 13.3528 46.9571 13.5573 46.9571 13.7754C46.9571 13.9935 46.9978 14.1963 47.0809 14.3888C47.1641 14.5814 47.276 14.7501 47.4169 14.8932C47.5577 15.0364 47.724 15.1505 47.9157 15.234C48.1074 15.3192 48.3144 15.3601 48.5367 15.3601C48.759 15.3601 48.9609 15.3175 49.1526 15.234C49.3443 15.1505 49.5123 15.0364 49.6548 14.8915C49.7974 14.7467 49.9094 14.578 49.9925 14.3871C50.0739 14.1963 50.1163 13.9918 50.1163 13.7754C50.1163 13.559 50.0756 13.3545 49.9925 13.1636C49.9094 12.9728 49.7974 12.8041 49.6548 12.6609C49.5123 12.5161 49.3443 12.4019 49.1526 12.3167C48.9609 12.2332 48.7556 12.1906 48.5367 12.1906V12.1889Z" fill="white"/>
<path d="M54.3802 16.3059C53.7779 16.3059 53.2519 16.1201 52.8023 15.7504V18.0048C52.8023 18.1411 52.7565 18.2519 52.6649 18.3422C52.5732 18.4308 52.4612 18.4751 52.3306 18.4751C52.2 18.4751 52.0829 18.4308 51.9946 18.3422C51.9064 18.2536 51.8623 18.1411 51.8623 18.0048V13.7754C51.8623 13.0767 52.1083 12.4803 52.5987 11.9861C53.0907 11.492 53.6846 11.2449 54.3802 11.2449C55.0759 11.2449 55.6646 11.492 56.1618 11.9861C56.4078 12.2298 56.5927 12.5025 56.7149 12.8024C56.8371 13.1023 56.8998 13.4277 56.8998 13.7754C56.8998 14.4791 56.6538 15.0773 56.1618 15.5646C55.9107 15.8151 55.6358 16.0008 55.3406 16.1218C55.0453 16.2445 54.7247 16.3042 54.3802 16.3042V16.3059ZM52.8023 13.7754C52.8023 13.9918 52.843 14.1963 52.9261 14.3888C53.0093 14.5814 53.1196 14.7501 53.2604 14.8932C53.4012 15.0364 53.5675 15.1505 53.7592 15.234C53.951 15.3192 54.158 15.3601 54.3802 15.3601C54.6025 15.3601 54.8044 15.3175 54.9961 15.234C55.1879 15.1505 55.3558 15.0364 55.4984 14.8915C55.6409 14.7467 55.7529 14.578 55.836 14.3871C55.9191 14.1963 55.9599 13.9918 55.9599 13.7754C55.9599 13.559 55.9191 13.3545 55.836 13.1636C55.7529 12.9728 55.6409 12.8041 55.4984 12.6609C55.3558 12.5161 55.1879 12.4019 54.9961 12.3167C54.8044 12.2332 54.5991 12.1906 54.3802 12.1906C54.1613 12.1906 53.951 12.2332 53.7592 12.3167C53.5675 12.4002 53.4012 12.5144 53.2604 12.6575C53.1196 12.8007 53.0076 12.9694 52.9261 13.1619C52.843 13.3545 52.8023 13.559 52.8023 13.7771V13.7754Z" fill="white"/>
<path d="M61.5336 14.883C61.6676 14.883 61.7796 14.9273 61.8678 15.0159C61.956 15.1045 62.0002 15.217 62.0002 15.3516C62.0002 15.4862 61.956 15.597 61.8644 15.6907C61.3995 16.1014 60.8515 16.3059 60.2186 16.3059C59.523 16.3059 58.9291 16.0588 58.4371 15.5646C57.945 15.0704 57.7007 14.474 57.7007 13.7754C57.7007 13.0767 57.9467 12.4803 58.4371 11.9861C58.9291 11.492 59.523 11.2449 60.2186 11.2449C60.9143 11.2449 61.5013 11.492 62.0002 11.9861C62.2462 12.2298 62.4311 12.5025 62.5533 12.8024C62.6771 13.1023 62.7382 13.4277 62.7382 13.7754C62.7382 13.9117 62.6924 14.0225 62.6008 14.1128C62.5092 14.2014 62.3972 14.2457 62.2648 14.2457H58.7034C58.7543 14.411 58.829 14.5626 58.9274 14.699C59.0258 14.8353 59.1429 14.9529 59.2769 15.0517C59.411 15.1505 59.5569 15.2255 59.7181 15.28C59.8793 15.3346 60.0455 15.3618 60.2203 15.3618C60.4171 15.3618 60.5987 15.3312 60.7632 15.2715C60.9295 15.2119 61.0822 15.1216 61.2231 15.0006C61.313 14.9256 61.4165 14.8864 61.5336 14.883ZM61.7355 13.3068C61.6846 13.1415 61.6082 12.9898 61.5081 12.8518C61.408 12.7155 61.2909 12.5979 61.1569 12.499C61.0228 12.4002 60.8769 12.3252 60.7157 12.2707C60.5546 12.2162 60.39 12.1889 60.2186 12.1889C60.0472 12.1889 59.881 12.2162 59.7181 12.2707C59.5569 12.3252 59.4076 12.4002 59.2735 12.499C59.1378 12.5962 59.0207 12.7138 58.9223 12.8518C58.8239 12.9881 58.7493 13.1398 58.7017 13.3068H61.7338H61.7355Z" fill="white"/>
<path d="M64.5061 11.7152V11.8055C64.7301 11.6249 64.9761 11.4851 65.2391 11.3897C65.5021 11.2926 65.7838 11.2449 66.0841 11.2449C66.2164 11.2449 66.3572 11.2534 66.5099 11.2721C66.6609 11.2909 66.8001 11.3233 66.9273 11.3693C67.0546 11.4153 67.1615 11.48 67.2446 11.5618C67.3278 11.6436 67.3702 11.7476 67.3702 11.8771C67.3702 11.9435 67.3566 12.0049 67.3311 12.0628C67.3057 12.1207 67.2718 12.1702 67.231 12.2145C67.1886 12.2571 67.1394 12.2912 67.0817 12.315C67.024 12.3389 66.963 12.3508 66.8968 12.3508C66.8408 12.3508 66.7729 12.3338 66.7 12.3014C66.5099 12.2264 66.3046 12.1889 66.0841 12.1889C65.8635 12.1889 65.6599 12.2298 65.4682 12.3133C65.2764 12.3968 65.1102 12.5093 64.9676 12.6524C64.8251 12.7955 64.7114 12.9642 64.63 13.1568C64.5468 13.3494 64.5061 13.5555 64.5061 13.7754V15.8356C64.5061 15.9651 64.4603 16.0758 64.3687 16.1678C64.2771 16.2599 64.1668 16.3059 64.0378 16.3059C63.9089 16.3059 63.7935 16.2599 63.7019 16.1678C63.6103 16.0758 63.5645 15.9651 63.5645 15.8356V11.7152C63.5645 11.5857 63.6103 11.4749 63.7019 11.3829C63.7935 11.2909 63.9038 11.2449 64.0378 11.2449C64.1719 11.2449 64.2771 11.2909 64.3687 11.3829C64.4603 11.4749 64.5061 11.5857 64.5061 11.7152Z" fill="white"/>
<path d="M68.5306 11.3233H69.0498V9.53404C69.0498 9.40453 69.0956 9.29377 69.1872 9.20175C69.2788 9.10973 69.3908 9.06372 69.5215 9.06372C69.6521 9.06372 69.7607 9.10973 69.8523 9.20175C69.9439 9.29377 69.9898 9.40453 69.9898 9.53404V11.3233H70.8602C70.9891 11.3233 71.0994 11.3693 71.1876 11.4613C71.2776 11.5533 71.3217 11.6641 71.3217 11.7936C71.3217 11.9231 71.2776 12.039 71.1876 12.131C71.0977 12.223 70.9874 12.269 70.8602 12.269H69.9898V14.4638C69.9898 15.0636 70.2901 15.3618 70.889 15.3618C71.018 15.3618 71.1266 15.4079 71.2165 15.4999C71.3064 15.5919 71.3522 15.7027 71.3522 15.8322C71.3522 15.9617 71.3081 16.0758 71.2165 16.1679C71.1266 16.2599 71.0163 16.3059 70.889 16.3059C69.6623 16.3059 69.0498 15.6907 69.0498 14.4621V12.2673H68.5306C68.405 12.2673 68.2964 12.2213 68.2031 12.1293C68.1115 12.0373 68.0674 11.9248 68.0674 11.7919C68.0674 11.659 68.1132 11.5516 68.2031 11.4596C68.2947 11.3676 68.4033 11.3216 68.5306 11.3216V11.3233Z" fill="white"/>
<path d="M73.6918 15.8356L72.0732 11.9282C72.0426 11.8583 72.0273 11.7885 72.0273 11.7152C72.0273 11.6521 72.0392 11.5925 72.063 11.5346C72.0867 11.4766 72.1207 11.4272 72.1614 11.3829C72.2038 11.3386 72.253 11.3062 72.309 11.2807C72.3667 11.2568 72.4278 11.2449 72.4939 11.2449C72.5873 11.2449 72.6738 11.2721 72.7535 11.3233C72.835 11.3761 72.8961 11.4528 72.9385 11.5567L74.2025 14.5882L75.4666 11.5482C75.5022 11.4579 75.5531 11.3846 75.621 11.3284C75.6888 11.2721 75.7839 11.2449 75.906 11.2449C75.9722 11.2449 76.0333 11.2568 76.091 11.2807C76.147 11.3045 76.1962 11.3386 76.2386 11.3829C76.281 11.4272 76.3149 11.4766 76.3404 11.5346C76.3658 11.5925 76.3794 11.6521 76.3794 11.7152C76.3794 11.7816 76.3624 11.8515 76.3285 11.9282L73.7427 18.1582C73.7037 18.2519 73.6426 18.3286 73.5629 18.3865C73.4814 18.4444 73.3932 18.4751 73.2982 18.4751C73.1624 18.4751 73.0522 18.4308 72.9622 18.3388C72.874 18.2485 72.8299 18.136 72.8299 17.9997C72.8299 17.9264 72.8452 17.8582 72.8757 17.7918L73.6901 15.8356H73.6918Z" fill="white"/>
<path d="M84.3118 15.8321C84.3118 15.9651 84.266 16.0758 84.1743 16.1678C84.0827 16.2599 83.9724 16.3059 83.8435 16.3059C83.7145 16.3059 83.6009 16.2599 83.5109 16.1678C83.421 16.0758 83.3752 15.9634 83.3752 15.8321V13.2608C83.3752 13.1159 83.348 12.9796 83.292 12.8501C83.2378 12.7206 83.1614 12.6064 83.0647 12.5093C82.9697 12.4121 82.856 12.3338 82.7253 12.2758C82.5947 12.2196 82.4539 12.1906 82.3046 12.1906C82.1552 12.1906 82.0195 12.2196 81.8906 12.2758C81.7616 12.3321 81.6479 12.4104 81.5512 12.5059C81.4545 12.603 81.3765 12.7155 81.3222 12.845C81.2662 12.9745 81.239 13.1142 81.239 13.2608V15.8321C81.239 15.9651 81.1932 16.0758 81.1016 16.1678C81.01 16.2599 80.8997 16.3059 80.7707 16.3059C80.6418 16.3059 80.5264 16.2599 80.4348 16.1678C80.3432 16.0758 80.2974 15.9634 80.2974 15.8321V13.2608C80.2974 13.1142 80.2685 12.9745 80.2125 12.845C80.1548 12.7155 80.0785 12.603 79.9835 12.5059C79.8867 12.4104 79.7748 12.3338 79.6458 12.2758C79.5169 12.2196 79.3794 12.1906 79.2318 12.1906C79.0842 12.1906 78.9468 12.2179 78.8178 12.2741C78.6889 12.3303 78.5752 12.407 78.4768 12.5042C78.3801 12.603 78.3037 12.7155 78.2477 12.845C78.1917 12.9745 78.1646 13.1142 78.1646 13.2608V15.8321C78.1646 15.9651 78.1188 16.0758 78.0272 16.1678C77.9355 16.2599 77.8252 16.3059 77.6963 16.3059C77.5673 16.3059 77.4537 16.2599 77.362 16.1678C77.2704 16.0758 77.2246 15.9634 77.2246 15.8321V11.7152C77.2246 11.5857 77.2704 11.4749 77.362 11.3829C77.4537 11.2909 77.5639 11.2449 77.6929 11.2449C77.7981 11.2449 77.8897 11.2738 77.9712 11.3335C78.0526 11.3914 78.1069 11.4698 78.1374 11.5669C78.4581 11.3522 78.8229 11.2466 79.2301 11.2466C79.5287 11.2466 79.8121 11.3062 80.0751 11.4255C80.3381 11.5448 80.5705 11.7254 80.7673 11.9657C81.1847 11.4868 81.6954 11.2483 82.3012 11.2483C82.5743 11.2483 82.8322 11.3011 83.0766 11.4085C83.3209 11.5158 83.5347 11.6607 83.7145 11.8413C83.8961 12.0236 84.0403 12.2366 84.1455 12.482C84.2524 12.7274 84.305 12.9881 84.305 13.2608V15.8321H84.3118Z" fill="white"/>
<path d="M92.21 11.7152V11.8055C92.4339 11.6249 92.6783 11.4868 92.943 11.3897C93.2059 11.2943 93.4876 11.2449 93.7879 11.2449C93.9203 11.2449 94.0611 11.2534 94.2121 11.2721C94.3648 11.2892 94.5022 11.3216 94.6312 11.3693C94.7584 11.417 94.8636 11.48 94.9485 11.5618C95.0316 11.6436 95.074 11.7493 95.074 11.8788C95.074 11.9452 95.0621 12.0066 95.0367 12.0645C95.0112 12.1225 94.9773 12.1719 94.9349 12.2162C94.8925 12.2605 94.8433 12.2946 94.7873 12.3184C94.7296 12.3423 94.6685 12.3542 94.6023 12.3542C94.5446 12.3542 94.4785 12.3372 94.4038 12.3048C94.2138 12.2298 94.0102 12.1923 93.7879 12.1923C93.5656 12.1923 93.3637 12.2332 93.172 12.3167C92.9803 12.4002 92.8123 12.5127 92.6698 12.6558C92.5273 12.799 92.4153 12.9677 92.3321 13.1602C92.249 13.3528 92.2083 13.559 92.2083 13.7788V15.839C92.2083 15.9685 92.1625 16.0792 92.0708 16.1712C91.9792 16.2633 91.8689 16.3093 91.74 16.3093C91.611 16.3093 91.4957 16.2633 91.404 16.1712C91.3124 16.0792 91.2666 15.9685 91.2666 15.839V11.7186C91.2666 11.5891 91.3124 11.4783 91.404 11.3863C91.4957 11.2943 91.6076 11.2483 91.74 11.2483C91.8723 11.2483 91.9792 11.2943 92.0708 11.3863C92.1625 11.4783 92.2083 11.5891 92.2083 11.7186L92.21 11.7152Z" fill="white"/>
<path d="M99.8688 15.4931L97.904 13.2608L99.2325 12.0253C99.3377 11.9248 99.3751 11.7902 99.3462 11.6249C99.3361 11.5618 99.3123 11.5056 99.2784 11.4528C99.2444 11.4017 99.202 11.3574 99.1528 11.3216C99.1036 11.2858 99.0493 11.2619 98.9882 11.2466C98.9288 11.233 98.8661 11.2313 98.8016 11.2415C98.71 11.2568 98.6319 11.296 98.5657 11.3557L96.8504 12.9574V9.53744C96.8504 9.40453 96.8046 9.29206 96.7129 9.20175C96.6213 9.10973 96.511 9.06372 96.3821 9.06372C96.2531 9.06372 96.1377 9.10973 96.0461 9.20175C95.9545 9.29377 95.9087 9.40623 95.9087 9.53744V15.8168C95.9087 15.9463 95.9545 16.0571 96.0461 16.1508C96.1377 16.2445 96.2497 16.2905 96.3821 16.2905C96.5144 16.2905 96.6213 16.2445 96.7129 16.1508C96.8046 16.0571 96.8504 15.9463 96.8504 15.8168V14.2355L96.8826 14.2048L97.2067 13.9066L99.2139 16.1696C99.297 16.2514 99.4022 16.2923 99.5278 16.2923C99.594 16.2923 99.655 16.2803 99.7127 16.2565C99.7687 16.2326 99.8196 16.1985 99.8603 16.1559C99.9027 16.1116 99.9367 16.0622 99.9621 16.0043C99.9876 15.9463 99.9995 15.8867 99.9995 15.8236C99.9995 15.6992 99.9553 15.5902 99.8688 15.4931Z" fill="white"/>
<path d="M90.2027 11.7169C90.2027 11.5874 90.1569 11.4749 90.0653 11.3846C89.9737 11.2926 89.8634 11.2466 89.7344 11.2466C89.6055 11.2466 89.4901 11.2926 89.3985 11.3846C89.3069 11.4766 89.2611 11.5874 89.2611 11.7169V11.8072C89.2322 11.7834 89.2017 11.7629 89.1728 11.7425C89.0303 11.6351 88.881 11.5448 88.7249 11.4732C88.7249 11.4732 88.7215 11.4715 88.7198 11.4698C88.6672 11.446 88.6129 11.4238 88.5586 11.4034C88.5484 11.3982 88.5383 11.3948 88.5281 11.3897V11.3931C88.2634 11.2994 87.9817 11.2483 87.6797 11.2483C86.9824 11.2483 86.3868 11.4954 85.8931 11.9912C85.3993 12.4871 85.1533 13.0852 85.1533 13.7856C85.1533 14.486 85.401 15.0841 85.8931 15.58C86.3868 16.0758 86.9824 16.3229 87.6797 16.3229C87.98 16.3229 88.2634 16.2752 88.5281 16.1781C88.7928 16.0809 89.0371 15.9429 89.2628 15.7606V15.8509C89.2628 15.9804 89.3086 16.0912 89.4002 16.1832C89.4918 16.2752 89.6038 16.3212 89.7361 16.3212C89.8685 16.3212 89.9754 16.2752 90.067 16.1832C90.1586 16.0912 90.2044 15.9804 90.2044 15.8509V13.7822V11.7169H90.2027ZM89.1355 14.4008C89.0524 14.5916 88.9404 14.762 88.7962 14.9052C88.6536 15.05 88.4857 15.1659 88.2939 15.2494C88.1022 15.3329 87.8952 15.3755 87.6746 15.3755C87.4541 15.3755 87.2454 15.3329 87.0519 15.2494C86.8602 15.1642 86.6922 15.05 86.5514 14.9069C86.4106 14.7637 86.2986 14.595 86.2155 14.4008C86.1323 14.2082 86.0916 14.002 86.0916 13.7839C86.0916 13.5658 86.1323 13.3613 86.2155 13.1687C86.2986 12.9745 86.4106 12.8075 86.5514 12.6626C86.6922 12.5195 86.8602 12.4053 87.0519 12.3201C87.2437 12.2349 87.4524 12.1923 87.6746 12.1923C87.8969 12.1923 88.1005 12.2349 88.2939 12.3201C88.4857 12.4036 88.6536 12.5195 88.7962 12.6643C88.9387 12.8092 89.0524 12.9779 89.1355 13.1704C89.2186 13.3613 89.2594 13.5675 89.2594 13.7839C89.2594 14.0003 89.2186 14.2065 89.1355 14.3991V14.4008Z" fill="white"/>
</g>
<defs>
<clipPath id="clip0_93_34">
<rect width="110.62" height="40.4709" fill="white"/>
</clipPath>
</defs>
</svg>
