<svg width="114" height="33" viewBox="0 0 114 33" fill="none" xmlns="http://www.w3.org/2000/svg">
<g clip-path="url(#clip0_93_128)">
<path d="M50.9391 5.25973V11.911H49.038V5.25973H47.6387V4.00879H52.3311V5.25973H50.9428H50.9391Z" fill="white"/>
<path d="M56.9136 11.8928V7.55593C56.9136 7.07286 56.6901 6.68352 55.9795 6.68352C55.6864 6.68352 55.4556 6.73038 55.2102 6.85656V11.8928H53.3896V4.02661H55.2102V5.87959C55.6315 5.69574 56.0747 5.59119 56.5656 5.59119C58.1407 5.59119 58.7378 6.48884 58.7378 7.51988V11.8892H56.9172L56.9136 11.8928Z" fill="white"/>
<path d="M61.6208 9.4378C61.749 10.3463 62.2143 10.7933 63.1374 10.7933C63.8737 10.7933 64.4341 10.6311 64.7711 10.4616L65.1814 11.5756C64.6905 11.8171 63.9909 12.0226 62.9286 12.0226C61.0018 12.0226 59.8955 10.7717 59.8955 8.7961C59.8955 6.82055 60.9212 5.60205 62.7308 5.60205C64.5403 5.60205 65.4744 6.82055 65.3939 8.91146L61.6245 9.4414L61.6208 9.4378ZM62.6612 6.65832C61.9139 6.65832 61.4487 7.2892 61.5073 8.56538L63.7015 8.24453C63.7015 7.1414 63.3279 6.65832 62.6648 6.65832H62.6612Z" fill="white"/>
<path d="M71.577 8.95837L71.3206 8.93674V11.9109H69.4634V4.35115C70.0348 4.07717 70.8883 3.89331 71.903 3.89331C74.1302 3.89331 74.9947 5.00726 74.9947 6.42043C74.9947 7.8336 73.991 9.17828 71.577 8.95837ZM71.892 4.94958C71.6356 4.94958 71.4268 4.99645 71.3206 5.03971V7.86605L71.577 7.87686C72.7675 7.93454 73.1998 7.44066 73.1998 6.40601C73.1998 5.37137 72.8481 4.94958 71.892 4.94958Z" fill="white"/>
<path d="M79.1161 6.88917C78.6728 6.70532 78.204 6.71613 77.9036 6.85312V11.9074H76.083V6.06002C76.7827 5.72836 77.7644 5.5445 79.4567 5.62381L79.1197 6.88557L79.1161 6.88917Z" fill="white"/>
<path d="M82.6067 12.0226C80.7862 12.0226 79.8301 10.6563 79.8301 8.80692C79.8301 6.95754 80.7862 5.60205 82.5957 5.60205C84.4053 5.60205 85.3834 6.95754 85.3834 8.80692C85.3834 10.6563 84.4273 12.0226 82.6067 12.0226ZM82.6067 6.716C81.8008 6.716 81.6397 7.68215 81.6397 8.78168C81.6397 9.88122 81.8155 10.8041 82.6067 10.8041C83.398 10.8041 83.5738 9.89564 83.5738 8.78168C83.5738 7.66773 83.4089 6.716 82.6067 6.716Z" fill="white"/>
<path d="M89.2737 11.9901C88.8891 11.9901 88.5484 11.9432 88.3616 11.8856V14.3766H86.541V6.05983C87.0795 5.79666 87.8268 5.59839 88.944 5.59839C90.8232 5.59839 92.0357 6.69071 92.0357 8.76721C92.0357 10.8437 90.9038 11.9829 89.27 11.9829L89.2737 11.9901ZM88.922 6.66187C88.6766 6.66187 88.5118 6.69792 88.3616 6.7556V10.8545C88.4788 10.9014 88.6436 10.9338 88.8415 10.9338C89.8085 10.9338 90.2408 10.1876 90.2408 8.79605C90.2408 7.40451 89.8891 6.65827 88.922 6.65827V6.66187Z" fill="white"/>
<path d="M94.7026 9.4378C94.8308 10.3463 95.2961 10.7933 96.2192 10.7933C96.9554 10.7933 97.5159 10.6311 97.8529 10.4616L98.2632 11.5756C97.7723 11.8171 97.0727 12.0226 96.0104 12.0226C94.0836 12.0226 92.9736 10.7717 92.9736 8.7961C92.9736 6.82055 93.9993 5.60205 95.8089 5.60205C97.6185 5.60205 98.5526 6.82055 98.472 8.91146L94.7026 9.4414V9.4378ZM95.7429 6.65832C94.9957 6.65832 94.5305 7.2892 94.5891 8.56538L96.7833 8.24453C96.7833 7.1414 96.4096 6.65832 95.7466 6.65832H95.7429Z" fill="white"/>
<path d="M102.662 6.88917C102.219 6.70532 101.75 6.71613 101.45 6.85312V11.9074H99.6294V6.06002C100.329 5.72836 101.311 5.5445 103.003 5.62381L102.666 6.88557L102.662 6.88917Z" fill="white"/>
<path d="M106.08 12.001C104.761 12.001 104.19 11.1646 104.19 10.2093V6.87822H103.501V5.71741H104.19V4.39797L106.01 3.93652V5.71741H106.977V6.87822H106.01V10.0723C106.01 10.5445 106.186 10.7969 106.593 10.7969C106.743 10.7969 106.827 10.7753 106.977 10.7284V11.8315C106.827 11.9 106.497 12.0046 106.08 12.0046V12.001Z" fill="white"/>
<path d="M110.494 14.3768H108.582L109.586 11.9074L107.542 5.71753H109.468L110.333 9.30092C110.461 9.82726 110.461 10.2779 110.461 10.2779H110.483C110.483 10.2779 110.52 9.83086 110.659 9.30092L111.615 5.71753H113.318L110.494 14.3768Z" fill="white"/>
<path d="M50.9245 23.5443C48.6826 23.5443 47.7852 21.7166 47.7852 19.4778C47.7852 17.2391 48.6826 15.4114 50.9245 15.4114C53.1663 15.4114 54.0637 17.2499 54.0637 19.4778C54.0637 21.7058 53.1663 23.5443 50.9245 23.5443ZM50.9245 16.6407C49.9098 16.6407 49.712 18.0647 49.712 19.4093C49.712 20.754 49.8988 22.178 50.9245 22.178C51.9501 22.178 52.1369 20.7648 52.1369 19.4093C52.1369 18.0539 51.9281 16.6407 50.9245 16.6407Z" fill="white"/>
<path d="M62.3313 23.4292V19.0887C62.3313 18.6164 62.0492 18.2487 61.4192 18.2487C61.1041 18.2487 60.8367 18.3425 60.6243 18.548V23.4292H58.8037V19.0635C58.8037 18.5696 58.4557 18.2487 57.822 18.2487C57.496 18.2487 57.3092 18.2848 57.0857 18.3641V23.4292H55.2651V17.5818C55.9648 17.2718 56.7121 17.1204 57.811 17.1204C58.8477 17.1204 59.4448 17.3979 59.8074 17.7404C60.203 17.4088 60.8477 17.1204 61.8844 17.1204C63.3789 17.1204 64.1482 17.9928 64.1482 19.0851V23.4256H62.3276L62.3313 23.4292Z" fill="white"/>
<path d="M67.8041 23.5444C66.7198 23.5444 65.9506 23.3498 65.5293 23.0866V14.4165H67.3499V17.3906C67.6429 17.2537 67.9689 17.1599 68.5184 17.1599C70.002 17.1599 71.0276 18.3316 71.0276 20.1593C71.0276 22.3295 69.8738 23.548 67.8078 23.548L67.8041 23.5444ZM68.0019 18.1801C67.7089 18.1801 67.522 18.227 67.3462 18.3171V22.3728C67.4854 22.4305 67.6832 22.4665 67.9067 22.4665C68.8298 22.4665 69.2254 21.6626 69.2254 20.2711C69.2254 19.0634 68.969 18.1801 67.9982 18.1801H68.0019Z" fill="white"/>
<path d="M74.8225 23.5444C73.0496 23.5444 72.1851 22.8883 72.1851 21.3959V17.2393H74.0056V21.522C74.0056 21.9691 74.2511 22.3368 74.8701 22.3368C75.1961 22.3368 75.4306 22.2899 75.6284 22.189V17.2393H77.449V23.0614C76.8665 23.3498 76.002 23.5444 74.8225 23.5444Z" fill="white"/>
<path d="M81.6981 23.5444C79.797 23.5444 78.6064 22.4413 78.6064 20.3756C78.6064 18.3099 79.7493 17.1707 81.3721 17.1707C81.7457 17.1707 82.0608 17.2176 82.2952 17.2753V14.4165H84.1048V23.0866C83.5333 23.3858 82.7861 23.5444 81.7018 23.5444H81.6981ZM82.2915 18.2378C82.1414 18.191 81.9765 18.1693 81.7897 18.1693C80.786 18.1693 80.4014 19.0201 80.4014 20.2927C80.4014 21.6374 80.8116 22.4052 81.7311 22.4052C81.9765 22.4052 82.1633 22.3836 82.2915 22.3151V18.2378Z" fill="white"/>
<path d="M86.9512 23.5336C86.1819 23.5336 85.4933 23.3389 85.105 23.0865L85.5739 21.951C85.8083 22.1348 86.2405 22.3079 86.6948 22.3079C87.149 22.3079 87.475 22.0231 87.475 21.6301C87.475 21.2155 87.2516 20.9848 86.6691 20.7577C85.5153 20.3107 85.2552 19.6798 85.2552 19.0345C85.2552 17.9782 86.094 17.1274 87.3578 17.1274C88.138 17.1274 88.6765 17.2752 89.1674 17.5745L88.7241 18.5947C88.5373 18.4469 88.1747 18.2738 87.7681 18.2738C87.2882 18.2738 87.0428 18.5622 87.0428 18.9155C87.0428 19.3301 87.3578 19.5608 87.8487 19.7663C89.0611 20.271 89.3432 20.8586 89.3432 21.5833C89.3432 22.6612 88.4457 23.5372 86.9512 23.5372V23.5336Z" fill="white"/>
<path d="M97.5232 23.4292V19.0887C97.5232 18.6164 97.2411 18.2487 96.6111 18.2487C96.296 18.2487 96.0286 18.3425 95.8162 18.548V23.4292H93.9956V19.0635C93.9956 18.5696 93.6439 18.2487 93.0139 18.2487C92.6879 18.2487 92.5011 18.2848 92.2776 18.3641V23.4292H90.457V17.5818C91.1567 17.2718 91.904 17.1204 93.0029 17.1204C94.0396 17.1204 94.6366 17.3979 94.9993 17.7404C95.3949 17.4088 96.0396 17.1204 97.0763 17.1204C98.5708 17.1204 99.3401 17.9928 99.3401 19.0851V23.4256H97.5195L97.5232 23.4292Z" fill="white"/>
<path d="M103.186 23.5445C101.366 23.5445 100.432 22.8776 100.432 21.5906C100.432 19.9936 102.054 19.5249 103.945 19.3519V19.0635C103.945 18.4218 103.501 18.2379 102.835 18.2379C102.227 18.2379 101.607 18.4326 101.201 18.6164L100.805 17.5926C101.249 17.4088 102.065 17.1204 103.175 17.1204C104.6 17.1204 105.648 17.7044 105.648 19.3843V23.0831C105.124 23.3571 104.271 23.5409 103.186 23.5409V23.5445ZM103.945 20.181C102.846 20.2856 102.135 20.5379 102.135 21.5257C102.135 22.2503 102.556 22.5603 103.278 22.5603C103.545 22.5603 103.78 22.5135 103.945 22.4342V20.1846V20.181Z" fill="white"/>
<path d="M110.553 23.4292V19.0995C110.553 18.6633 110.355 18.2379 109.619 18.2379C109.256 18.2379 109.058 18.2956 108.849 18.3641V23.4292H107.029V17.5818C107.659 17.3042 108.545 17.1204 109.666 17.1204C111.663 17.1204 112.373 17.9603 112.373 19.0851V23.4256H110.553V23.4292Z" fill="white"/>
<path d="M43.5029 28.9986L40.8582 25.1737H23.517C22.484 25.1737 21.6708 24.7591 21.2825 24.0309C20.8942 23.3099 21.0041 22.4123 21.5865 21.5723L29.9824 9.44858L24.4071 1.39135C23.1214 -0.465236 21.0151 -0.468841 19.7293 1.39135L0.607829 28.9986C-0.677926 30.8552 0.13895 32.3765 2.42107 32.3765H41.686C43.9718 32.3765 44.7887 30.8552 43.5029 28.9986Z" fill="white"/>
<path d="M44.5763 21.9258L35.0851 8.20864C34.7078 7.66428 34.173 7.35425 33.6125 7.35425C33.4917 7.35425 33.3744 7.37588 33.2572 7.40111C32.8286 7.50205 32.4403 7.77243 32.14 8.20864L30.6271 10.3933L22.6378 21.9294C22.2459 22.4954 22.1616 23.0505 22.3997 23.4939C22.6378 23.9374 23.1507 24.1825 23.8467 24.1825H43.3638C43.9572 24.1825 44.4078 23.995 44.6788 23.667C44.7264 23.6093 44.7777 23.5588 44.8144 23.4939C45.0525 23.0505 44.9682 22.4954 44.5763 21.9294V21.9258ZM33.6125 8.07525C33.9312 8.07525 34.2389 8.26632 34.4807 8.61601L43.9718 22.3331C44.199 22.6612 44.2686 22.9604 44.166 23.1551C44.0634 23.3497 43.7704 23.4615 43.3674 23.4615H23.8503C23.4474 23.4615 23.1543 23.3497 23.0518 23.1587C22.9492 22.9676 23.0188 22.6648 23.2459 22.3367L31.0703 11.035L32.7444 8.61601C32.9862 8.26992 33.2939 8.07525 33.6125 8.07525Z" fill="white"/>
</g>
<defs>
<clipPath id="clip0_93_128">
<rect width="113.319" height="32.3767" fill="white"/>
</clipPath>
</defs>
</svg>
