<svg width="112" height="41" viewBox="0 0 112 41" fill="none" xmlns="http://www.w3.org/2000/svg">
<g clip-path="url(#clip0_93_61)">
<path d="M83.131 30.3762H82.6621V34.0944H83.131C83.6513 34.0944 84.0841 33.9172 84.4534 33.5491C84.6406 33.3634 84.7797 33.1623 84.8707 32.9493C84.96 32.738 85.0046 32.496 85.0046 32.2336C85.0046 31.719 84.8243 31.2913 84.4534 30.9232C84.0824 30.5534 83.6496 30.3745 83.131 30.3745V30.3762Z" fill="white"/>
<path d="M34.6247 30.596C34.5543 30.5262 34.4753 30.4734 34.386 30.4342C34.2932 30.395 34.1971 30.3762 34.0957 30.3762H33.3418V31.8673H34.0957C34.2022 31.8673 34.2984 31.8485 34.3877 31.8093C34.4822 31.7701 34.5594 31.7173 34.623 31.6508C34.6934 31.5793 34.7484 31.4992 34.7896 31.4055C34.8256 31.3203 34.8445 31.2248 34.8445 31.1243C34.8445 31.0238 34.8256 30.9232 34.7878 30.8346C34.7466 30.7426 34.6934 30.6642 34.6247 30.596Z" fill="white"/>
<path d="M41.8341 30.3762C41.5714 30.3762 41.3275 30.4205 41.1111 30.5108C40.8982 30.6012 40.6938 30.7392 40.5083 30.9249C40.3211 31.1107 40.1854 31.3066 40.0944 31.5213C40.0051 31.7309 39.9604 31.9712 39.9604 32.2353C39.9604 32.7551 40.1391 33.1862 40.5083 33.5508C40.8775 33.9189 41.3103 34.0961 41.8341 34.0961C42.3579 34.0961 42.789 33.9172 43.16 33.5508C43.5292 33.1862 43.7078 32.7551 43.7078 32.2353C43.7078 31.7156 43.5292 31.2896 43.16 30.9249C42.789 30.5551 42.3545 30.3762 41.8341 30.3762Z" fill="white"/>
<path d="M107.647 0H4.3227C1.93551 0 0 1.92045 0 4.28906V36.1801C0 38.5488 1.93551 40.4692 4.3227 40.4692H107.647C110.034 40.4692 111.97 38.5488 111.97 36.1801V4.28906C111.97 1.92045 110.034 0 107.647 0ZM28.9726 32.801C28.545 33.2219 28.0246 33.4366 27.4235 33.4366H26.9529V34.7385C26.9529 34.914 26.8877 35.0725 26.7623 35.1952C26.6386 35.3179 26.4789 35.3844 26.302 35.3844C26.1251 35.3844 25.9671 35.3196 25.8418 35.1952C25.7181 35.0742 25.6511 34.9157 25.6511 34.7385V29.7287C25.6511 29.64 25.6683 29.5548 25.7009 29.4782C25.7318 29.4032 25.7765 29.335 25.8366 29.2737C25.8967 29.2123 25.9654 29.1663 26.0444 29.1339C26.1251 29.0999 26.211 29.0845 26.302 29.0845H27.4235C27.6193 29.0845 27.8133 29.1118 28.0005 29.1629C28.1929 29.2174 28.3681 29.2907 28.5261 29.3844C28.6858 29.4782 28.8352 29.5923 28.9692 29.7235C29.1083 29.8599 29.2233 30.0081 29.3161 30.1666C29.4122 30.3302 29.4878 30.504 29.5393 30.6846C29.5943 30.8653 29.6201 31.0612 29.6201 31.2606C29.6201 31.8553 29.4019 32.3733 28.9709 32.801H28.9726ZM36.3763 34.9958C36.3454 35.0708 36.299 35.139 36.2389 35.1986C36.1771 35.26 36.1067 35.306 36.026 35.3384C35.947 35.369 35.8628 35.3861 35.7769 35.3861C35.5485 35.3861 35.3579 35.2804 35.2239 35.081L34.0149 33.1606H33.3417V34.7402C33.3417 34.9157 33.2764 35.0742 33.1527 35.1969C32.9037 35.444 32.4795 35.444 32.2305 35.1969C32.1068 35.0742 32.0399 34.9157 32.0399 34.7402V29.7304C32.0399 29.6418 32.057 29.5565 32.0897 29.4799C32.1189 29.4066 32.1652 29.3384 32.2271 29.2754C32.2889 29.2123 32.3593 29.1663 32.4366 29.1339C32.5122 29.1016 32.598 29.0845 32.6925 29.0845H34.0956C34.3773 29.0845 34.6452 29.1391 34.8959 29.2464C35.1432 29.3538 35.3613 29.502 35.5451 29.6861C35.7323 29.8718 35.8783 30.0899 35.9847 30.3319C36.0929 30.5756 36.1496 30.8431 36.1496 31.1226C36.1496 31.3049 36.1256 31.4838 36.0809 31.6525C36.0345 31.8263 35.9659 31.9916 35.8748 32.145C35.7838 32.2966 35.6705 32.4398 35.5365 32.571C35.4661 32.6409 35.3905 32.7039 35.3064 32.767L36.3299 34.3892C36.3986 34.5068 36.4313 34.621 36.4313 34.7385C36.4313 34.8305 36.4141 34.9175 36.3815 34.9941L36.3763 34.9958ZM44.0771 34.4659C43.4606 35.0776 42.7067 35.3878 41.8342 35.3878C40.9618 35.3878 40.2044 35.0776 39.5861 34.4659C38.9696 33.8524 38.6587 33.1027 38.6587 32.2353C38.6587 31.3679 38.9713 30.6216 39.5861 30.0098C40.2061 29.3964 40.9618 29.0845 41.8342 29.0845C42.7067 29.0845 43.4572 29.3947 44.0771 30.0098C44.388 30.3183 44.6216 30.6591 44.7761 31.0254C44.9307 31.3935 45.0097 31.7991 45.0097 32.2336C45.0097 33.0975 44.6954 33.849 44.0771 34.4642V34.4659ZM51.2078 30.1887C51.0842 30.3114 50.9244 30.3779 50.7475 30.3779H49.5763V34.7419C49.5763 34.9192 49.5093 35.0776 49.3839 35.2003C49.2603 35.323 49.1023 35.3878 48.9254 35.3878C48.7485 35.3878 48.5888 35.323 48.4651 35.1986C48.3415 35.0759 48.2745 34.9175 48.2745 34.7419V30.3779H47.1032C46.928 30.3779 46.77 30.3131 46.6429 30.1905C46.5193 30.0661 46.4523 29.9076 46.4523 29.7321C46.4523 29.5565 46.5176 29.3998 46.6412 29.2754C46.7683 29.1527 46.928 29.0862 47.1015 29.0862H50.7475C50.9244 29.0862 51.0824 29.151 51.2078 29.2754C51.3315 29.3981 51.3984 29.5565 51.3984 29.7321C51.3984 29.9076 51.3332 30.0661 51.2078 30.1887ZM56.6726 31.5912C56.8495 31.5912 57.0092 31.6559 57.1329 31.7803C57.2565 31.903 57.3235 32.0615 57.3235 32.237C57.3235 32.4125 57.2582 32.571 57.1329 32.6937C57.0092 32.8164 56.8495 32.8828 56.6726 32.8828H54.7989V34.0961H57.5124C57.6893 34.0961 57.849 34.1609 57.9727 34.2853C58.0963 34.4079 58.1633 34.5664 58.1633 34.7419C58.1633 34.9175 58.098 35.0759 57.9727 35.1986C57.849 35.3213 57.6893 35.3878 57.5124 35.3878H54.148C54.057 35.3878 53.9711 35.3707 53.8938 35.3384C53.8131 35.3043 53.7427 35.2566 53.6843 35.1952C53.6276 35.1407 53.5813 35.0708 53.5486 34.9941C53.516 34.9175 53.4988 34.8323 53.4988 34.7402V29.7304C53.4988 29.6435 53.516 29.56 53.5486 29.4799C53.5795 29.4049 53.6242 29.3367 53.6843 29.2754C53.7444 29.214 53.8131 29.168 53.8921 29.1357C53.9728 29.1016 54.0587 29.0862 54.1497 29.0862H57.5141C57.691 29.0862 57.8507 29.151 57.9744 29.2754C58.098 29.3981 58.165 29.5565 58.165 29.7321C58.165 29.9076 58.0997 30.0661 57.9744 30.1887C57.8507 30.3114 57.691 30.3779 57.5141 30.3779H54.8006V31.5912H56.6743H56.6726ZM61.8076 33.5508C62.1751 33.9189 62.6096 34.0961 63.1352 34.0961C63.5834 34.0961 63.9664 33.9632 64.3064 33.6888C64.4301 33.6036 64.5537 33.5662 64.6911 33.561C64.7873 33.5644 64.8732 33.5798 64.9573 33.6156C65.0295 33.6479 65.0947 33.6905 65.1514 33.7434C65.2149 33.803 65.263 33.8729 65.2974 33.953C65.3317 34.0296 65.3506 34.1166 65.3506 34.2069C65.3506 34.3739 65.2836 34.5306 65.1583 34.6618C64.5452 35.1509 63.8737 35.3861 63.1369 35.3861C62.2627 35.3861 61.5071 35.0759 60.8905 34.4642C60.274 33.8507 59.9614 33.1009 59.9614 32.2336C59.9614 31.3662 60.274 30.6182 60.8905 30.0081C61.5088 29.3947 62.2662 29.0828 63.1369 29.0828C63.8857 29.0828 64.5692 29.3299 65.1686 29.8156C65.2699 29.911 65.3695 30.0524 65.3695 30.2825C65.3695 30.3745 65.3506 30.458 65.318 30.5381C65.2871 30.6131 65.2407 30.6812 65.1806 30.7409C65.1256 30.7988 65.0535 30.8465 64.9728 30.8789C64.7392 30.9658 64.4833 30.9317 64.279 30.7545C64.1295 30.6369 63.9509 30.5398 63.7569 30.4716C63.5645 30.4052 63.355 30.3711 63.1369 30.3711C62.6131 30.3711 62.1786 30.55 61.8093 30.9198C61.4418 31.2827 61.2649 31.7105 61.2649 32.2302C61.2649 32.7499 61.4418 33.1827 61.8093 33.5457L61.8076 33.5508ZM71.9489 30.1887C71.8252 30.3114 71.6672 30.3762 71.4903 30.3762H70.3191V34.7402C70.3191 34.9157 70.2538 35.0742 70.1284 35.1969C70.0048 35.3196 69.8451 35.3861 69.6682 35.3861C69.4913 35.3861 69.3298 35.3213 69.2079 35.1952C69.0843 35.0742 69.0173 34.9157 69.0173 34.7385V30.3745H67.846C67.6691 30.3745 67.5111 30.3097 67.3857 30.1853C67.2621 30.0626 67.1951 29.9042 67.1951 29.7287C67.1951 29.5531 67.2604 29.3964 67.3857 29.272C67.5094 29.1493 67.6691 29.0828 67.846 29.0828H71.4921C71.6689 29.0828 71.827 29.1476 71.9523 29.272C72.076 29.393 72.143 29.5514 72.143 29.7287C72.143 29.9059 72.0777 30.0661 71.9506 30.187L71.9489 30.1887ZM77.5356 31.5895C77.7125 31.5895 77.8722 31.6542 77.9959 31.7786C78.1195 31.9013 78.1865 32.0598 78.1865 32.2353C78.1865 32.4108 78.1212 32.5693 77.9959 32.692C77.8722 32.8147 77.7125 32.8811 77.5356 32.8811H75.6619V34.0944H78.3754C78.5523 34.0944 78.712 34.1592 78.8357 34.2836C78.9593 34.4062 79.0263 34.5647 79.0263 34.7402C79.0263 34.9157 78.961 35.0742 78.8357 35.1969C78.712 35.3196 78.5523 35.3861 78.3754 35.3861H75.011C74.92 35.3861 74.8341 35.369 74.7551 35.3366C74.6744 35.3026 74.604 35.2549 74.5456 35.1935C74.4889 35.139 74.4426 35.0691 74.4099 34.9924C74.3773 34.9158 74.3601 34.8305 74.3601 34.7385V29.7287C74.3601 29.6418 74.3773 29.5583 74.4099 29.4782C74.4408 29.4032 74.4855 29.335 74.5456 29.2737C74.6057 29.2123 74.6744 29.1663 74.7534 29.1339C74.8341 29.0999 74.92 29.0845 75.011 29.0845H78.3754C78.5523 29.0845 78.712 29.1493 78.8357 29.2737C78.9593 29.3964 79.0263 29.5548 79.0263 29.7304C79.0263 29.9059 78.961 30.0644 78.8357 30.187C78.712 30.3097 78.5523 30.3762 78.3754 30.3762H75.6619V31.5895H77.5356ZM85.3738 34.4642C84.7556 35.0759 84.0016 35.3861 83.1309 35.3861H82.0111C81.9201 35.3861 81.836 35.3673 81.7553 35.3332C81.6797 35.3026 81.6093 35.2549 81.5492 35.1969C81.4925 35.1424 81.4427 35.0725 81.4101 34.9941C81.3757 34.9175 81.3568 34.8305 81.3568 34.7402V29.7304C81.3568 29.64 81.3757 29.5548 81.4118 29.4748C81.4444 29.3998 81.4925 29.3299 81.5543 29.2703C81.611 29.2157 81.678 29.1731 81.7535 29.1391C81.8377 29.1033 81.9218 29.0845 82.0129 29.0845H83.1326C84.0033 29.0845 84.7573 29.3947 85.3755 30.0098C85.683 30.3165 85.92 30.6574 86.0745 31.0254C86.2291 31.3935 86.3081 31.8008 86.3081 32.2353C86.3081 33.1009 85.9955 33.8507 85.3755 34.4659L85.3738 34.4642ZM108.348 19.7004C108.348 22.0622 106.4 23.9946 104.02 23.9946H7.96016C5.56954 23.9946 3.63231 22.0724 3.63231 19.7004V7.89992C3.63231 5.53983 5.56095 3.62449 7.94127 3.62449H104.02C106.41 3.62449 108.348 5.54665 108.348 7.91867V19.7004Z" fill="white"/>
<path d="M28.0505 30.6318C27.9698 30.5517 27.8737 30.4887 27.7637 30.441C27.6538 30.3967 27.5405 30.3745 27.4237 30.3745H26.9531V32.1433H27.4237C27.5473 32.1433 27.6573 32.1212 27.762 32.0751C27.8737 32.0274 27.9664 31.9644 28.0488 31.8843C28.1295 31.8059 28.1948 31.7088 28.2446 31.5997C28.2893 31.4958 28.3133 31.3799 28.3133 31.2589C28.3133 31.1379 28.291 31.0203 28.2429 30.913C28.1948 30.8056 28.1295 30.7085 28.0488 30.6301L28.0505 30.6318Z" fill="white"/>
<path d="M34.9114 16.3093C34.8049 16.3093 34.7173 16.2224 34.7173 16.1167V9.25628C34.7173 9.15063 34.8049 9.06372 34.9114 9.06372C35.0178 9.06372 35.1054 9.15063 35.1054 9.25628V16.1167C35.1054 16.2224 35.0178 16.3093 34.9114 16.3093Z" fill="white"/>
<path d="M41.0804 16.3059C40.4707 16.3059 39.9383 16.1201 39.4832 15.7504V18.0048C39.4832 18.1411 39.4368 18.2519 39.3441 18.3422C39.2513 18.4308 39.138 18.4751 39.0057 18.4751C38.8735 18.4751 38.7567 18.4308 38.6674 18.3422C38.5781 18.2536 38.5317 18.1411 38.5317 18.0048V13.7771C38.5317 13.0784 38.7808 12.482 39.2788 11.9878C39.7769 11.4937 40.3762 11.2466 41.0804 11.2466C41.7845 11.2466 42.3787 11.4937 42.8836 11.9878C43.1327 12.2315 43.3181 12.5042 43.4435 12.8041C43.5672 13.104 43.6307 13.4278 43.6307 13.7771C43.6307 14.4808 43.3817 15.0773 42.8836 15.5663C42.6295 15.8168 42.3512 16.0026 42.0524 16.1235C41.7536 16.2462 41.429 16.3059 41.0804 16.3059ZM39.4832 13.7771C39.4832 13.9935 39.5244 14.198 39.6086 14.3905C39.6927 14.5831 39.8043 14.7518 39.9486 14.8949C40.0911 15.0381 40.2594 15.1522 40.4535 15.2357C40.6476 15.3209 40.8571 15.3618 41.0821 15.3618C41.3071 15.3618 41.5114 15.3192 41.7055 15.2357C41.8996 15.1522 42.0696 15.0381 42.2139 14.8932C42.3581 14.7484 42.4715 14.5797 42.5556 14.3888C42.6398 14.198 42.681 13.9935 42.681 13.7771C42.681 13.5607 42.6398 13.3562 42.5556 13.1653C42.4715 12.9745 42.3581 12.8058 42.2139 12.6626C42.0696 12.5178 41.9013 12.4036 41.7055 12.3184C41.5114 12.2349 41.3036 12.1923 41.0821 12.1923C40.8605 12.1923 40.6493 12.2349 40.4535 12.3184C40.2594 12.4019 40.0911 12.5161 39.9486 12.6592C39.8061 12.8024 39.6927 12.9711 39.6086 13.1636C39.5244 13.3562 39.4832 13.5607 39.4832 13.7771Z" fill="white"/>
<path d="M45.4099 11.7169V11.8072C45.6366 11.6266 45.8839 11.4869 46.1519 11.3914C46.4198 11.2943 46.7049 11.2466 47.0088 11.2466C47.1428 11.2466 47.2853 11.2551 47.4399 11.2738C47.5928 11.2926 47.7336 11.325 47.8624 11.371C47.9912 11.417 48.0977 11.4817 48.1835 11.5635C48.2677 11.6453 48.3106 11.7493 48.3106 11.8788C48.3106 11.9452 48.2986 12.0066 48.2728 12.0645C48.2471 12.1225 48.2127 12.1719 48.1698 12.2162C48.1269 12.2588 48.0771 12.2929 48.0204 12.3167C47.962 12.3406 47.9002 12.3525 47.8332 12.3525C47.7765 12.3525 47.7095 12.3355 47.634 12.3031C47.4433 12.2281 47.2355 12.1906 47.0106 12.1906C46.7856 12.1906 46.5812 12.2315 46.3871 12.315C46.1931 12.3985 46.0231 12.511 45.8788 12.6541C45.7345 12.7973 45.6212 12.966 45.537 13.1585C45.4529 13.3511 45.4117 13.5573 45.4117 13.7771V15.8373C45.4117 15.9668 45.3653 16.0775 45.2725 16.1695C45.1798 16.2616 45.0682 16.3076 44.9377 16.3076C44.8071 16.3076 44.6903 16.2616 44.5976 16.1695C44.5049 16.0775 44.4585 15.9668 44.4585 15.8373V11.7186C44.4585 11.5891 44.5049 11.4783 44.5976 11.3863C44.6903 11.2943 44.8037 11.2483 44.9377 11.2483C45.0716 11.2483 45.1798 11.2943 45.2725 11.3863C45.3653 11.4783 45.4117 11.5891 45.4117 11.7186L45.4099 11.7169Z" fill="white"/>
<path d="M53.5936 13.7771C53.5936 14.4808 53.3446 15.0773 52.8465 15.5663C52.3433 16.0605 51.7422 16.3076 51.0433 16.3076C50.3443 16.3076 49.738 16.0605 49.2417 15.5663C48.7454 15.0721 48.4946 14.4757 48.4946 13.7771C48.4946 13.0784 48.7437 12.482 49.2417 11.9878C49.7397 11.4937 50.3408 11.2466 51.0433 11.2466C51.7457 11.2466 52.3433 11.4937 52.8465 11.9878C53.0956 12.2349 53.281 12.5076 53.4047 12.8058C53.5266 13.104 53.5902 13.4278 53.5936 13.7771ZM51.0433 12.1923C50.8183 12.1923 50.6105 12.2349 50.4147 12.3184C50.2206 12.4019 50.0523 12.5161 49.9098 12.6592C49.7672 12.8024 49.6539 12.9711 49.5697 13.1636C49.4856 13.3562 49.4444 13.5607 49.4444 13.7771C49.4444 13.9935 49.4856 14.198 49.5697 14.3905C49.6539 14.5831 49.7672 14.7518 49.9098 14.8949C50.0523 15.0381 50.2206 15.1522 50.4147 15.2357C50.6088 15.3209 50.8183 15.3618 51.0433 15.3618C51.2682 15.3618 51.4726 15.3192 51.6667 15.2357C51.8607 15.1522 52.0308 15.0381 52.175 14.8932C52.3193 14.7484 52.4326 14.5797 52.5168 14.3888C52.5992 14.198 52.6422 13.9935 52.6422 13.7771C52.6422 13.5607 52.6009 13.3562 52.5168 13.1653C52.4326 12.9745 52.3193 12.8058 52.175 12.6626C52.0308 12.5178 51.8607 12.4036 51.6667 12.3184C51.4726 12.2349 51.2648 12.1923 51.0433 12.1923Z" fill="white"/>
<path d="M56.9559 16.3059C56.3462 16.3059 55.8138 16.1201 55.3587 15.7504V18.0048C55.3587 18.1411 55.3123 18.2519 55.2196 18.3422C55.1268 18.4308 55.0135 18.4751 54.8812 18.4751C54.749 18.4751 54.6305 18.4308 54.5412 18.3422C54.4519 18.2536 54.4072 18.1411 54.4072 18.0048V13.7771C54.4072 13.0784 54.6563 12.482 55.1526 11.9878C55.6506 11.4937 56.2517 11.2466 56.9559 11.2466C57.66 11.2466 58.2542 11.4937 58.7591 11.9878C59.0082 12.2315 59.1953 12.5042 59.319 12.8041C59.4427 13.104 59.5062 13.4278 59.5062 13.7771C59.5062 14.4808 59.2572 15.0773 58.7591 15.5663C58.505 15.8168 58.2267 16.0026 57.9279 16.1235C57.6291 16.2462 57.3045 16.3059 56.9559 16.3059ZM55.3587 13.7771C55.3587 13.9935 55.3999 14.198 55.484 14.3905C55.5682 14.5831 55.6798 14.7518 55.8224 14.8949C55.9649 15.0381 56.1332 15.1522 56.3273 15.2357C56.5214 15.3209 56.7309 15.3618 56.9559 15.3618C57.1808 15.3618 57.3852 15.3192 57.5793 15.2357C57.7733 15.1522 57.9434 15.0381 58.0876 14.8932C58.2319 14.7484 58.3452 14.5797 58.4294 14.3888C58.5135 14.198 58.5548 13.9935 58.5548 13.7771C58.5548 13.5607 58.5135 13.3562 58.4294 13.1653C58.3452 12.9745 58.2319 12.8058 58.0876 12.6626C57.9434 12.5178 57.7733 12.4036 57.5793 12.3184C57.3852 12.2349 57.1774 12.1923 56.9559 12.1923C56.7343 12.1923 56.5214 12.2349 56.3273 12.3184C56.1332 12.4019 55.9649 12.5161 55.8224 12.6592C55.6798 12.8024 55.5665 12.9711 55.484 13.1636C55.3999 13.3562 55.3587 13.5607 55.3587 13.7771Z" fill="white"/>
<path d="M64.195 14.883C64.3307 14.883 64.4441 14.9273 64.5334 15.0159C64.6227 15.1045 64.6673 15.217 64.6673 15.3516C64.6673 15.4862 64.6227 15.597 64.5299 15.6907C64.0594 16.0997 63.5046 16.3059 62.8641 16.3059C62.1599 16.3059 61.5588 16.0588 61.0608 15.5646C60.5627 15.0704 60.3154 14.474 60.3154 13.7754C60.3154 13.0767 60.5645 12.4803 61.0608 11.9861C61.5588 11.492 62.1599 11.2449 62.8641 11.2449C63.5682 11.2449 64.1624 11.492 64.6656 11.9861C64.9146 12.2298 65.1018 12.5025 65.2255 12.8024C65.3509 13.1023 65.4127 13.426 65.4127 13.7754C65.4127 13.9117 65.3663 14.0225 65.2736 14.1128C65.1808 14.2014 65.0675 14.2457 64.9335 14.2457H61.3287C61.3802 14.411 61.4558 14.5626 61.5554 14.699C61.655 14.8353 61.7735 14.9529 61.9092 15.0517C62.0449 15.1505 62.1925 15.2255 62.3557 15.28C62.5189 15.3346 62.6872 15.3618 62.8641 15.3618C63.0633 15.3618 63.247 15.3312 63.4136 15.2715C63.5819 15.2119 63.7348 15.1216 63.879 15.0006C63.9701 14.9256 64.0748 14.8864 64.1933 14.883H64.195ZM64.3994 13.3068C64.3479 13.1415 64.2706 12.9898 64.1693 12.8518C64.068 12.7155 63.9495 12.5979 63.8138 12.499C63.6781 12.4002 63.5304 12.3252 63.3673 12.2707C63.2041 12.2162 63.0375 12.1889 62.8641 12.1889C62.6906 12.1889 62.5223 12.2162 62.3591 12.2707C62.196 12.3252 62.0449 12.4002 61.9092 12.499C61.7718 12.5962 61.6533 12.7138 61.5537 12.8518C61.4541 12.9881 61.3785 13.1398 61.3304 13.3068H64.3994Z" fill="white"/>
<path d="M67.2053 11.7169V11.8072C67.432 11.6266 67.6811 11.4869 67.9473 11.3914C68.2135 11.2943 68.4986 11.2466 68.8025 11.2466C68.9365 11.2466 69.079 11.2551 69.2336 11.2738C69.3865 11.2926 69.5273 11.325 69.6561 11.371C69.7849 11.417 69.8931 11.4817 69.9772 11.5635C70.0614 11.6453 70.1043 11.7493 70.1043 11.8788C70.1043 11.9452 70.0906 12.0066 70.0648 12.0645C70.0391 12.1225 70.0047 12.1719 69.9635 12.2162C69.9206 12.2588 69.8708 12.2929 69.8124 12.3167C69.754 12.3406 69.6921 12.3525 69.6252 12.3525C69.5685 12.3525 69.4998 12.3355 69.426 12.3031C69.2353 12.2281 69.0258 12.1906 68.8025 12.1906C68.5793 12.1906 68.3732 12.2315 68.1791 12.315C67.985 12.3985 67.8167 12.511 67.6725 12.6541C67.5282 12.7973 67.4132 12.966 67.3307 13.1585C67.2466 13.3511 67.2053 13.5573 67.2053 13.7771V15.8373C67.2053 15.9668 67.159 16.0775 67.0662 16.1695C66.9735 16.2616 66.8619 16.3076 66.7313 16.3076C66.6008 16.3076 66.484 16.2616 66.393 16.1695C66.3003 16.0775 66.2539 15.9668 66.2539 15.8373V11.7186C66.2539 11.5891 66.3003 11.4783 66.393 11.3863C66.4858 11.2943 66.5974 11.2483 66.7313 11.2483C66.8653 11.2483 66.9735 11.2943 67.0662 11.3863C67.159 11.4783 67.2053 11.5891 67.2053 11.7186V11.7169Z" fill="white"/>
<path d="M71.2774 11.325H71.803V9.53574C71.803 9.40624 71.8493 9.29547 71.9421 9.20346C72.0348 9.11144 72.1482 9.06543 72.2804 9.06543C72.4126 9.06543 72.5226 9.11144 72.6153 9.20346C72.7063 9.29547 72.7544 9.40624 72.7544 9.53574V11.325H73.6354C73.766 11.325 73.8776 11.371 73.9669 11.463C74.0579 11.555 74.1026 11.6658 74.1026 11.7953C74.1026 11.9248 74.0579 12.0407 73.9669 12.1327C73.8759 12.2247 73.766 12.2707 73.6354 12.2707H72.7544V14.4655C72.7544 15.0636 73.0584 15.3636 73.6646 15.3636C73.7952 15.3636 73.9051 15.4096 73.9961 15.5016C74.0871 15.5936 74.1335 15.7044 74.1335 15.8339C74.1335 15.9634 74.0888 16.0775 73.9961 16.1696C73.9051 16.2616 73.7952 16.3076 73.6646 16.3076C72.423 16.3076 71.803 15.6924 71.803 14.4655V12.2707H71.2774C71.1504 12.2707 71.0404 12.2247 70.946 12.1327C70.8532 12.0407 70.8086 11.9282 70.8086 11.7953C70.8086 11.6624 70.855 11.555 70.946 11.463C71.0387 11.371 71.1486 11.325 71.2774 11.325Z" fill="white"/>
<path d="M76.5002 15.8356L74.8618 11.9282C74.8309 11.8583 74.8154 11.7885 74.8154 11.7152C74.8154 11.6521 74.8275 11.5925 74.8515 11.5346C74.8755 11.4766 74.9099 11.4272 74.9511 11.3829C74.994 11.3386 75.0438 11.3062 75.1005 11.2807C75.1589 11.2568 75.2207 11.2449 75.2877 11.2449C75.3822 11.2449 75.4698 11.2721 75.5505 11.3233C75.6329 11.3761 75.6947 11.4528 75.7377 11.5567L77.0171 14.5882L78.2966 11.5482C78.3327 11.4579 78.3842 11.3846 78.4529 11.3284C78.5216 11.2721 78.6178 11.2449 78.7414 11.2449C78.8084 11.2449 78.8702 11.2568 78.9286 11.2807C78.9853 11.3045 79.0351 11.3386 79.078 11.3829C79.121 11.4272 79.1553 11.4766 79.1811 11.5346C79.2068 11.5925 79.2206 11.6521 79.2206 11.7152C79.2206 11.7816 79.2034 11.8515 79.169 11.9282L76.5517 18.1565C76.5122 18.2502 76.4504 18.3269 76.3697 18.3848C76.289 18.4427 76.1979 18.4734 76.1018 18.4734C75.9644 18.4734 75.8527 18.4291 75.7617 18.3371C75.6724 18.2468 75.6278 18.1343 75.6278 17.998C75.6278 17.9247 75.6432 17.8565 75.6741 17.7901L76.4968 15.8338L76.5002 15.8356Z" fill="white"/>
<path d="M87.2461 15.8322C87.2461 15.9651 87.1997 16.0758 87.107 16.1678C87.0142 16.2599 86.9026 16.3059 86.7721 16.3059C86.6416 16.3059 86.5265 16.2599 86.4355 16.1678C86.3445 16.0758 86.2981 15.9634 86.2981 15.8322V13.2625C86.2981 13.1176 86.2706 12.9813 86.2139 12.8518C86.159 12.7223 86.0817 12.6081 85.9838 12.511C85.8876 12.4139 85.7726 12.3355 85.6403 12.2792C85.5081 12.223 85.3655 12.194 85.2144 12.194C85.0633 12.194 84.9259 12.223 84.7954 12.2792C84.6648 12.3355 84.5498 12.4139 84.4519 12.5093C84.354 12.6064 84.2767 12.7189 84.22 12.8484C84.1634 12.9779 84.1359 13.1176 84.1359 13.2642V15.8339C84.1359 15.9668 84.0895 16.0775 83.9968 16.1696C83.904 16.2616 83.7924 16.3076 83.6619 16.3076C83.5314 16.3076 83.4146 16.2616 83.3218 16.1696C83.2291 16.0775 83.1827 15.9651 83.1827 15.8339V13.2642C83.1827 13.1176 83.1535 12.9779 83.0968 12.8484C83.0385 12.7189 82.9612 12.6064 82.865 12.5093C82.7671 12.4139 82.6538 12.3372 82.5232 12.2792C82.3927 12.223 82.2536 12.194 82.1042 12.194C81.9548 12.194 81.8157 12.2213 81.6851 12.2775C81.5546 12.3338 81.4396 12.4104 81.3417 12.5076C81.2438 12.6064 81.1665 12.7189 81.1098 12.8484C81.0531 12.9779 81.0257 13.1176 81.0257 13.2642V15.8339C81.0257 15.9668 80.9793 16.0775 80.8866 16.1696C80.7938 16.2616 80.6822 16.3076 80.5517 16.3076C80.4211 16.3076 80.3061 16.2616 80.2133 16.1696C80.1206 16.0775 80.0742 15.9651 80.0742 15.8339V11.7186C80.0742 11.5891 80.1206 11.4783 80.2133 11.3863C80.3061 11.2943 80.4177 11.2483 80.5482 11.2483C80.6547 11.2483 80.7474 11.2773 80.8299 11.3369C80.9123 11.3948 80.9673 11.4732 80.9982 11.5704C81.3228 11.3556 81.692 11.25 82.1042 11.25C82.4065 11.25 82.6933 11.3096 82.9595 11.4289C83.2257 11.5482 83.4592 11.7288 83.6602 11.9691C84.0826 11.4903 84.5996 11.2517 85.2127 11.2517C85.4892 11.2517 85.7502 11.3045 85.9975 11.4119C86.2448 11.5192 86.4612 11.6641 86.6433 11.8447C86.827 12.027 86.973 12.24 87.0795 12.4854C87.1877 12.7308 87.2409 12.9915 87.2409 13.2642V15.8339L87.2461 15.8322Z" fill="white"/>
<path d="M95.2405 11.7169V11.8072C95.4672 11.6266 95.7145 11.4886 95.9824 11.3914C96.2486 11.296 96.5337 11.2466 96.8377 11.2466C96.9717 11.2466 97.1142 11.2551 97.2671 11.2738C97.4216 11.2909 97.5607 11.3233 97.6913 11.371C97.8201 11.4187 97.9265 11.4817 98.0124 11.5635C98.0966 11.6453 98.1395 11.751 98.1395 11.8805C98.1395 11.9469 98.1275 12.0083 98.1017 12.0662C98.0759 12.1242 98.0416 12.1736 97.9987 12.2179C97.9557 12.2622 97.9059 12.2963 97.8493 12.3201C97.7909 12.344 97.729 12.3559 97.6621 12.3559C97.6037 12.3559 97.5367 12.3389 97.4611 12.3065C97.2705 12.2315 97.0627 12.194 96.8377 12.194C96.6127 12.194 96.4084 12.2349 96.2143 12.3184C96.0202 12.4019 95.8502 12.5144 95.7059 12.6575C95.5617 12.8007 95.4483 12.9694 95.3642 13.1619C95.28 13.3545 95.2388 13.5607 95.2388 13.7805V15.8407C95.2388 15.9702 95.1924 16.0809 95.0997 16.173C95.007 16.265 94.8953 16.311 94.7648 16.311C94.6343 16.311 94.5175 16.265 94.4248 16.173C94.332 16.0809 94.2856 15.9702 94.2856 15.8407V11.722C94.2856 11.5925 94.332 11.4817 94.4248 11.3897C94.5175 11.2977 94.6308 11.2517 94.7648 11.2517C94.8988 11.2517 95.007 11.2977 95.0997 11.3897C95.1924 11.4817 95.2388 11.5925 95.2388 11.722L95.2405 11.7169Z" fill="white"/>
<path d="M102.989 15.4948L101.001 13.2625L102.345 12.027C102.452 11.9265 102.49 11.7919 102.46 11.6266C102.45 11.5636 102.426 11.5073 102.392 11.4545C102.357 11.4034 102.314 11.3591 102.265 11.3233C102.215 11.2875 102.16 11.2636 102.098 11.2483C102.038 11.2347 101.974 11.233 101.909 11.2432C101.816 11.2585 101.737 11.2977 101.67 11.3574L99.9341 12.9575V9.53915C99.9341 9.40624 99.8877 9.29547 99.795 9.20346C99.7023 9.11144 99.5906 9.06543 99.4601 9.06543C99.3296 9.06543 99.2128 9.11144 99.1201 9.20346C99.029 9.29547 98.981 9.40794 98.981 9.53915V15.8185C98.981 15.948 99.0273 16.0588 99.1201 16.1525C99.2128 16.2462 99.3262 16.2923 99.4601 16.2923C99.5941 16.2923 99.7023 16.2462 99.795 16.1525C99.8877 16.0588 99.9341 15.948 99.9341 15.8185V14.2372L99.9667 14.2065L100.295 13.9083L102.325 16.1713C102.409 16.2531 102.515 16.294 102.642 16.294C102.709 16.294 102.771 16.282 102.83 16.2582C102.886 16.2343 102.938 16.2002 102.979 16.1576C103.022 16.1133 103.056 16.0639 103.082 16.006C103.108 15.948 103.12 15.8884 103.12 15.8254C103.12 15.701 103.075 15.5919 102.988 15.4965L102.989 15.4948Z" fill="white"/>
<path d="M93.2072 11.7186C93.2072 11.5891 93.1608 11.4783 93.0681 11.3863C92.9753 11.2943 92.8637 11.2483 92.7332 11.2483C92.6027 11.2483 92.4859 11.2943 92.3931 11.3863C92.3004 11.4783 92.254 11.5891 92.254 11.7186V11.8089C92.2248 11.7851 92.1939 11.7646 92.1647 11.7442C92.0205 11.6368 91.8693 11.5465 91.7113 11.4749C91.7113 11.4749 91.7079 11.4732 91.7062 11.4715C91.6529 11.4477 91.598 11.4255 91.543 11.4051C91.5327 11.4 91.5224 11.3965 91.5121 11.3914V11.3948C91.2442 11.3011 90.9591 11.25 90.6534 11.25C89.9475 11.25 89.3447 11.4971 88.845 11.993C88.3452 12.4888 88.0962 13.0869 88.0962 13.7873C88.0962 14.4877 88.3469 15.0858 88.845 15.5817C89.3447 16.0775 89.9475 16.3246 90.6534 16.3246C90.9574 16.3246 91.2442 16.2769 91.5121 16.1798C91.78 16.0826 92.0273 15.9446 92.2557 15.7623V15.8526C92.2557 15.9821 92.3021 16.0929 92.3948 16.1849C92.4876 16.2769 92.6009 16.3229 92.7349 16.3229C92.8688 16.3229 92.977 16.2769 93.0698 16.1849C93.1625 16.0929 93.2089 15.9821 93.2089 15.8526V13.7839V11.7186H93.2072ZM92.1269 14.4008C92.0428 14.5916 91.9294 14.7603 91.7835 14.9052C91.6392 15.05 91.4692 15.1659 91.2751 15.2494C91.081 15.3329 90.8715 15.3755 90.65 15.3755C90.4284 15.3755 90.2155 15.3329 90.0197 15.2494C89.8256 15.1642 89.6556 15.05 89.513 14.9069C89.3705 14.7637 89.2571 14.595 89.173 14.4008C89.0888 14.2082 89.0476 14.002 89.0476 13.7839C89.0476 13.5658 89.0888 13.3613 89.173 13.1687C89.2571 12.9745 89.3705 12.8075 89.513 12.6626C89.6556 12.5195 89.8256 12.4053 90.0197 12.3201C90.2137 12.2349 90.425 12.1923 90.65 12.1923C90.8749 12.1923 91.081 12.2349 91.2751 12.3201C91.4692 12.4036 91.6392 12.5195 91.7835 12.6643C91.9277 12.8092 92.0428 12.9779 92.1269 13.1704C92.2111 13.3613 92.2523 13.5675 92.2523 13.7839C92.2523 14.0003 92.2111 14.2065 92.1269 14.3991V14.4008Z" fill="white"/>
<path d="M9.77564 11.7169C10.1775 11.4068 10.6515 11.2534 11.1959 11.2534C11.5137 11.2534 11.8142 11.3148 12.0993 11.4375C12.3844 11.5601 12.6386 11.7271 12.8549 11.9384C13.0731 12.1514 13.2448 12.4002 13.3719 12.6865C13.499 12.9728 13.5625 13.2778 13.5625 13.6016V15.8202C13.5625 15.9515 13.5161 16.0639 13.4251 16.1542C13.3324 16.2463 13.2208 16.2923 13.0902 16.2923C12.9597 16.2923 12.8464 16.2463 12.7536 16.1542C12.6626 16.0639 12.6145 15.9515 12.6145 15.8202V13.6016C12.6145 13.409 12.5767 13.2267 12.5029 13.0563C12.4273 12.8859 12.3243 12.7359 12.1955 12.6081C12.0667 12.482 11.9172 12.3798 11.7438 12.3048C11.572 12.2298 11.3883 12.1923 11.1959 12.1923C11.0036 12.1923 10.8147 12.2281 10.6446 12.3031C10.4729 12.3764 10.3235 12.4769 10.193 12.6064C10.0624 12.7359 9.96112 12.8859 9.88727 13.0563C9.81343 13.2267 9.77564 13.409 9.77564 13.6016V15.8202C9.77564 15.9515 9.72927 16.0639 9.63825 16.1542C9.54551 16.2463 9.43388 16.2923 9.30507 16.2923C9.17627 16.2923 9.05949 16.2463 8.96675 16.1542C8.87401 16.0639 8.82764 15.9515 8.82764 15.8202V11.7254C8.82764 11.5976 8.87401 11.4852 8.96675 11.3914C9.05949 11.2994 9.17112 11.2534 9.30507 11.2534C9.43903 11.2534 9.54551 11.2994 9.63825 11.3914C9.72927 11.4852 9.77564 11.5925 9.77564 11.7169Z" fill="white"/>
<path d="M24.1522 14.8762C24.2879 14.8762 24.4013 14.9205 24.4906 15.0091C24.5799 15.0977 24.6228 15.2102 24.6228 15.3448C24.6228 15.4794 24.5782 15.5902 24.4871 15.6822C24.0183 16.0912 23.4653 16.294 22.8264 16.294C22.1257 16.294 21.5263 16.0469 21.0317 15.5561C20.5354 15.0636 20.2881 14.4706 20.2881 13.7737C20.2881 13.0767 20.5354 12.4837 21.0317 11.9913C21.5281 11.4988 22.1257 11.2534 22.8264 11.2534C23.5271 11.2534 24.1213 11.4988 24.6228 11.9913C24.8701 12.2332 25.0556 12.5042 25.181 12.8041C25.3046 13.1023 25.3664 13.4244 25.3664 13.7737C25.3664 13.9083 25.3218 14.0208 25.2273 14.1094C25.1363 14.198 25.023 14.2423 24.889 14.2423H21.2979C21.3494 14.4059 21.425 14.5575 21.5263 14.6956C21.6259 14.8302 21.7427 14.9478 21.8767 15.0449C22.0124 15.142 22.1601 15.2187 22.3215 15.2715C22.4829 15.3261 22.6512 15.3533 22.8264 15.3533C23.0256 15.3533 23.2094 15.3227 23.376 15.263C23.5426 15.2034 23.6971 15.1131 23.838 14.9938C23.929 14.9188 24.0337 14.8796 24.1505 14.8762H24.1522ZM24.3566 13.3051C24.3051 13.1415 24.2295 12.9898 24.1265 12.8535C24.0269 12.7172 23.9067 12.5996 23.7727 12.5025C23.6387 12.4053 23.4893 12.3304 23.3279 12.2758C23.1665 12.2213 22.9981 12.1958 22.8264 12.1958C22.6547 12.1958 22.4864 12.2213 22.3232 12.2758C22.1601 12.3304 22.0106 12.4053 21.8732 12.5025C21.7376 12.5996 21.6191 12.7172 21.5195 12.8535C21.4199 12.9898 21.346 13.1415 21.2962 13.3051H24.3532H24.3566Z" fill="white"/>
<path d="M31.2793 13.6783V11.7408C31.2793 11.613 31.2329 11.5022 31.1419 11.4102C31.0491 11.3182 30.9392 11.2722 30.8087 11.2722C30.6782 11.2722 30.5631 11.3182 30.4704 11.4102C30.3776 11.5022 30.3313 11.613 30.3313 11.7408V11.8055C29.8744 11.4375 29.3455 11.2534 28.7444 11.2534C28.0437 11.2534 27.4443 11.4988 26.9497 11.9913C26.4534 12.4837 26.2061 13.0767 26.2061 13.7737C26.2061 14.4706 26.4534 15.0636 26.9497 15.5561C27.4443 16.0469 28.0437 16.294 28.7444 16.294C29.0484 16.294 29.33 16.2463 29.5979 16.1508C29.8641 16.0537 30.1097 15.9157 30.3364 15.7367V15.8271C30.3364 15.9549 30.3828 16.0656 30.4738 16.1559C30.5665 16.248 30.6782 16.294 30.8121 16.294C30.9461 16.294 31.0526 16.248 31.1453 16.1559C31.238 16.0656 31.2844 15.9549 31.2844 15.8271V13.7754C31.2844 13.743 31.281 13.7123 31.2793 13.6817V13.6783ZM30.211 14.382C30.1286 14.5729 30.0153 14.7399 29.871 14.8847C29.7714 14.9853 29.6598 15.0705 29.5344 15.1403C29.4794 15.171 29.4228 15.2 29.3644 15.2255C29.1703 15.309 28.9625 15.3516 28.7427 15.3516C28.5228 15.3516 28.3099 15.309 28.1175 15.2255C27.9235 15.142 27.7569 15.0279 27.6143 14.8864C27.4718 14.7433 27.3602 14.5763 27.276 14.3837C27.1936 14.1912 27.1523 13.9884 27.1523 13.772C27.1523 13.5556 27.1936 13.3511 27.276 13.1602C27.3584 12.9677 27.4718 12.8024 27.6143 12.6592C27.7569 12.5161 27.9235 12.4019 28.1175 12.3201C28.3116 12.2349 28.5211 12.194 28.7427 12.194C28.9642 12.194 29.1703 12.2349 29.3644 12.3201C29.5567 12.4036 29.7267 12.5178 29.8693 12.661C30.0135 12.8058 30.1269 12.9728 30.2093 13.1636C30.2935 13.3545 30.3347 13.5573 30.3347 13.7737C30.3347 13.9901 30.2935 14.1912 30.2093 14.3837L30.211 14.382Z" fill="white"/>
<path d="M19.4753 13.6697V11.7322C19.4753 11.6044 19.4289 11.4937 19.3379 11.4016C19.2452 11.3096 19.1336 11.2636 19.0047 11.2636C18.8759 11.2636 18.7592 11.3096 18.6664 11.4016C18.5754 11.4937 18.529 11.6044 18.529 11.7322V11.797C18.0722 11.4289 17.5432 11.2449 16.9404 11.2449C16.2397 11.2449 15.6421 11.4903 15.144 11.9827C14.6477 12.4752 14.4004 13.0682 14.4004 13.7651C14.4004 14.4621 14.6477 15.0551 15.144 15.5476C15.6404 16.0383 16.238 16.2854 16.9404 16.2854C17.2427 16.2854 17.5278 16.236 17.794 16.1423C18.0602 16.0452 18.3058 15.9071 18.5325 15.7282V15.8185C18.5325 15.9463 18.5771 16.0571 18.6699 16.1474C18.7626 16.2394 18.8759 16.2854 19.0082 16.2854C19.1404 16.2854 19.2486 16.2394 19.3414 16.1474C19.4324 16.0571 19.4788 15.9463 19.4788 15.8185V13.7669C19.4788 13.7345 19.4753 13.7038 19.4753 13.6731V13.6697ZM18.4071 14.3735C18.3229 14.5643 18.2113 14.7313 18.067 14.8762C17.9228 15.0193 17.7545 15.1335 17.5604 15.217C17.3681 15.3005 17.1603 15.3431 16.9387 15.3431C16.7172 15.3431 16.5059 15.3005 16.3136 15.217C16.1195 15.1335 15.9529 15.0193 15.8104 14.8779C15.6678 14.7347 15.5562 14.5677 15.472 14.3752C15.3896 14.1826 15.3484 13.9799 15.3484 13.7634C15.3484 13.547 15.3896 13.3425 15.472 13.1517C15.5562 12.9591 15.6678 12.7938 15.8104 12.6507C15.9529 12.5076 16.1195 12.3934 16.3136 12.3116C16.5076 12.2264 16.7155 12.1855 16.9387 12.1855C17.162 12.1855 17.3681 12.2264 17.5604 12.3116C17.7545 12.3951 17.9228 12.5093 18.067 12.6524C18.2096 12.7973 18.3229 12.9642 18.4071 13.1551C18.4912 13.346 18.5325 13.5487 18.5325 13.7651C18.5325 13.9816 18.4912 14.1826 18.4071 14.3752V14.3735Z" fill="white"/>
</g>
<defs>
<clipPath id="clip0_93_61">
<rect width="111.97" height="40.4709" fill="white"/>
</clipPath>
</defs>
</svg>
