<svg width="24" height="25" viewBox="0 0 24 25" fill="none" xmlns="http://www.w3.org/2000/svg">
<g clip-path="url(#clip0_93_588)">
<path d="M23.3906 13.258C23.7318 13.258 24 12.9846 24 12.6367V6.03877H18.2956V0H13.9685C13.6272 0 13.3591 0.27336 13.3591 0.621272C13.3591 0.969185 13.6272 1.24254 13.9685 1.24254H17.0767V11.6302H5.44845V17.4081H1.21889V1.24254H8.02031C8.3616 1.24254 8.62976 0.969185 8.62976 0.621272C8.62976 0.27336 8.3616 0 8.02031 0H0V18.6506H5.44845V24.9876H8.02031C8.34942 24.9876 8.60538 24.7142 8.60538 24.3911C8.60538 24.0681 8.33723 23.7947 8.02031 23.7947H6.61859V12.8355H17.0767V23.7699H14.6267C14.6267 23.7699 14.6267 23.6581 14.6267 23.6083C14.6267 20.3653 12.0427 17.6814 8.86135 17.6317C8.60538 17.669 8.39817 17.8305 8.39817 18.0914C8.39817 18.3524 8.59319 18.5636 8.84916 18.5636C11.5307 18.6133 13.7125 20.8748 13.7125 23.6083C13.7125 23.832 13.7004 24.0557 13.6638 24.2793C13.6638 24.3166 13.6394 24.3539 13.6394 24.3911C13.6394 24.7391 13.9076 25.0124 14.2489 25.0124H23.9878V17.7435C23.9878 17.3956 23.7197 17.1223 23.3784 17.1223C23.0371 17.1223 22.7689 17.3956 22.7689 17.7435V23.7699H18.2834V7.28131H22.7689V12.6367C22.7689 12.9846 23.0371 13.258 23.3784 13.258H23.3906Z" fill="#17182B"/>
</g>
<defs>
<clipPath id="clip0_93_588">
<rect width="24" height="25" fill="white"/>
</clipPath>
</defs>
</svg>
