<svg width="90" height="45" viewBox="0 0 90 45" fill="none" xmlns="http://www.w3.org/2000/svg">
<g clip-path="url(#clip0_93_87)">
<path d="M11.9165 36.613L11.4139 35.1357H8.5242L8.02165 36.613H6.83936L9.52287 29.2522H10.4185L13.102 36.613H11.9197H11.9165ZM9.99321 30.9175L8.8528 34.1832H11.1046L9.99321 30.9175Z" fill="white"/>
<path d="M16.5553 33.7199H14.8897V36.613H13.7783V29.2522H16.552C17.9824 29.2522 18.8973 30.2015 18.8973 31.4844C18.8973 32.7674 17.9824 33.7166 16.552 33.7166M16.4908 30.2533H14.8865V32.7026H16.4908C17.2608 32.7026 17.7859 32.2587 17.7859 31.4812C17.7859 30.7036 17.2608 30.2501 16.4908 30.2501" fill="white"/>
<path d="M22.6602 33.7199H20.9947V36.613H19.8833V29.2522H22.6602C24.0906 29.2522 25.0055 30.2015 25.0055 31.4844C25.0055 32.7674 24.0906 33.7166 22.6602 33.7166M22.599 30.2533H20.9947V32.7026H22.599C23.369 32.7026 23.8941 32.2587 23.8941 31.4812C23.8941 30.7036 23.369 30.2501 22.599 30.2501" fill="white"/>
<path d="M30.0308 36.613L28.4877 33.5125H27.0992V36.613H25.9878V29.2522H28.8259C30.2144 29.2522 31.0971 30.1529 31.0971 31.4034C31.0971 32.4596 30.4592 33.1302 29.6378 33.357L31.3226 36.613H30.0276H30.0308ZM28.7454 30.2565H27.1024V32.5633H28.7454C29.4864 32.5633 29.9889 32.1389 29.9889 31.4164C29.9889 30.6939 29.4864 30.2598 28.7454 30.2598" fill="white"/>
<path d="M36.664 35.8903C36.1614 36.3957 35.5139 36.6744 34.7311 36.6744C33.9483 36.6744 33.3136 36.3957 32.8079 35.8903C32.0895 35.1678 32.0991 34.3514 32.0991 32.9324C32.0991 31.5134 32.0895 30.7002 32.8079 29.9777C33.3104 29.4723 33.9483 29.1904 34.7311 29.1904C35.5139 29.1904 36.1614 29.4691 36.664 29.9777C37.3824 30.7002 37.3631 31.5166 37.3631 32.9324C37.3631 34.3482 37.3824 35.1646 36.664 35.8903ZM35.82 30.6483C35.5622 30.3697 35.1628 30.1948 34.7311 30.1948C34.2994 30.1948 33.9 30.3697 33.6422 30.6483C33.2814 31.0404 33.2105 31.455 33.2105 32.9324C33.2105 34.4097 33.2814 34.8244 33.6422 35.2164C33.9 35.4951 34.2994 35.67 34.7311 35.67C35.1628 35.67 35.5622 35.4951 35.82 35.2164C36.1808 34.8244 36.2517 34.4097 36.2517 32.9324C36.2517 31.455 36.1808 31.0404 35.82 30.6483Z" fill="white"/>
<path d="M40.91 36.613H40.0434L37.6401 29.2522H38.7902L40.4751 34.6076L42.1631 29.2522H43.3358L40.91 36.613Z" fill="white"/>
<path d="M43.9834 36.613V29.2522H48.661V30.2565H45.0916V32.4078H48.1359V33.3991H45.0916V35.6119H48.661V36.613H43.9834Z" fill="white"/>
<path d="M54.2826 35.9197C53.8187 36.3862 53.1518 36.613 52.3916 36.613H49.8208V29.2522H52.3916C53.1518 29.2522 53.8219 29.479 54.2826 29.9455C55.0751 30.7425 55.0235 31.8181 55.0235 32.8808C55.0235 33.9434 55.0751 35.1227 54.2826 35.9197ZM53.5223 30.7522C53.213 30.412 52.8039 30.2565 52.2788 30.2565H50.9322V35.6119H52.2788C52.8039 35.6119 53.2163 35.4564 53.5223 35.1162C53.9025 34.6918 53.9121 33.8948 53.9121 32.884C53.9121 31.8732 53.9025 31.1766 53.5223 30.7555" fill="white"/>
<path d="M60.213 36.6776C59.4528 36.6776 58.7956 36.399 58.2898 35.8903C57.5714 35.1678 57.5811 34.3514 57.5811 32.9324C57.5811 31.5134 57.5714 30.7002 58.2898 29.9777C58.7923 29.4723 59.4528 29.1904 60.213 29.1904C61.5596 29.1904 62.568 29.9874 62.8224 31.455H61.6917C61.5177 30.7099 61.0249 30.1948 60.213 30.1948C59.7814 30.1948 59.3915 30.36 59.1338 30.6386C58.773 31.0306 58.6925 31.455 58.6925 32.9324C58.6925 34.4097 58.7762 34.8342 59.1338 35.2262C59.3915 35.5048 59.7814 35.67 60.213 35.67C61.0249 35.67 61.5274 35.1516 61.7046 34.4097H62.8257C62.5808 35.8774 61.5403 36.6744 60.2163 36.6744" fill="white"/>
<path d="M68.2446 35.8903C67.742 36.3957 67.0945 36.6744 66.3117 36.6744C65.5288 36.6744 64.8942 36.3957 64.3884 35.8903C63.67 35.1678 63.6797 34.3514 63.6797 32.9324C63.6797 31.5134 63.67 30.7002 64.3884 29.9777C64.8942 29.4723 65.5288 29.1904 66.3117 29.1904C67.0945 29.1904 67.7388 29.4691 68.2446 29.9777C68.963 30.7002 68.9436 31.5166 68.9436 32.9324C68.9436 34.3482 68.963 35.1646 68.2446 35.8903ZM67.4005 30.6483C67.1428 30.3697 66.7433 30.1948 66.3117 30.1948C65.88 30.1948 65.4773 30.3697 65.2228 30.6483C64.862 31.0404 64.7911 31.455 64.7911 32.9324C64.7911 34.4097 64.862 34.8244 65.2228 35.2164C65.4805 35.4951 65.88 35.67 66.3117 35.67C66.7433 35.67 67.1428 35.4951 67.4005 35.2164C67.7613 34.8244 67.8322 34.4097 67.8322 32.9324C67.8322 31.455 67.7613 31.0404 67.4005 30.6483Z" fill="white"/>
<path d="M74.6908 35.9197C74.2269 36.3862 73.56 36.613 72.7998 36.613H70.229V29.2522H72.7998C73.56 29.2522 74.2269 29.479 74.6908 29.9455C75.4833 30.7425 75.4317 31.8181 75.4317 32.8808C75.4317 33.9434 75.4833 35.1227 74.6908 35.9197ZM73.9305 30.7522C73.6213 30.412 73.2121 30.2565 72.687 30.2565H71.3404V35.6119H72.687C73.2121 35.6119 73.6245 35.4564 73.9305 35.1162C74.3107 34.6918 74.3203 33.8948 74.3203 32.884C74.3203 31.8732 74.3107 31.1766 73.9305 30.7555" fill="white"/>
<path d="M76.7139 36.613V29.2522H81.3915V30.2565H77.8253V32.4078H80.8664V33.3991H77.8253V35.6119H81.3915V36.613H76.7139Z" fill="white"/>
<path d="M8.75904 40.3451V44.4758H8.04065V40.3451H6.72949V39.6907H10.0702V40.3451H8.75904Z" fill="white"/>
<path d="M13.4532 44.4758L12.4513 42.4607H11.5493V44.4758H10.8276V39.6907H12.6736C13.5756 39.6907 14.149 40.2738 14.149 41.087C14.149 41.7739 13.7367 42.208 13.2019 42.357L14.2972 44.4758H13.4564H13.4532ZM12.6188 40.3451H11.5493V41.8419H12.6188C13.102 41.8419 13.4274 41.5665 13.4274 41.0967C13.4274 40.627 13.0988 40.3451 12.6188 40.3451Z" fill="white"/>
<path d="M17.8699 44.4758L17.5413 43.5136H15.6632L15.3378 44.4758H14.5679L16.3139 39.6907H16.8938L18.6399 44.4758H17.8731H17.8699ZM16.62 40.7728L15.879 42.8948H17.3416L16.62 40.7728Z" fill="white"/>
<path d="M22.1479 44.0255C21.8483 44.3268 21.4134 44.4758 20.9173 44.4758H19.2485V39.6907H20.9173C21.4134 39.6907 21.8483 39.8397 22.1479 40.141C22.6633 40.6594 22.6279 41.3592 22.6279 42.0492C22.6279 42.7393 22.6601 43.5071 22.1479 44.0255ZM21.655 40.6658C21.452 40.4423 21.1879 40.3451 20.8464 40.3451H19.9702V43.8247H20.8464C21.1879 43.8247 21.452 43.7242 21.655 43.5039C21.9031 43.2285 21.9095 42.7102 21.9095 42.0525C21.9095 41.3948 21.9031 40.9445 21.655 40.6691" fill="white"/>
<path d="M24.3547 39.6907H23.6299V44.4758H24.3547V39.6907Z" fill="white"/>
<path d="M28.4522 44.4758L26.2519 41.1097V44.4758H25.5303V39.6907H26.1907L28.391 43.0536V39.6907H29.1094V44.4758H28.4522Z" fill="white"/>
<path d="M33.1362 43.9737C32.7754 44.356 32.3276 44.518 31.8251 44.518C31.3225 44.518 30.9037 44.3366 30.5784 44.0061C30.108 43.5364 30.1177 43.005 30.1177 42.0849C30.1177 41.1648 30.1112 40.6335 30.5784 40.1637C30.9037 39.8333 31.3193 39.6519 31.8251 39.6519C32.8366 39.6519 33.423 40.3193 33.5583 41.1389H32.827C32.7078 40.6141 32.3599 40.3063 31.8251 40.3063C31.548 40.3063 31.2903 40.4197 31.1228 40.6044C30.8909 40.8603 30.8361 41.126 30.8361 42.0882C30.8361 43.0504 30.8909 43.3258 31.1228 43.5817C31.2903 43.7632 31.5448 43.8701 31.8251 43.8701C32.1408 43.8701 32.4146 43.7502 32.6015 43.5331C32.7754 43.3323 32.8431 43.0893 32.8431 42.7815V42.5126H31.8251V41.897H33.5647V42.6292C33.5647 43.248 33.452 43.6433 33.1362 43.9802" fill="white"/>
<path d="M35.9973 44.5149C35.2822 44.5149 34.7667 44.3464 34.3125 43.8831L34.7925 43.4068C35.1404 43.7567 35.5238 43.8637 36.007 43.8637C36.6288 43.8637 36.9896 43.5948 36.9896 43.1315C36.9896 42.9241 36.9316 42.7492 36.8027 42.6325C36.6835 42.5191 36.5643 42.4705 36.2841 42.4317L35.7203 42.3507C35.3337 42.2988 35.0277 42.1628 34.8183 41.9684C34.5863 41.7448 34.4704 41.4435 34.4704 41.0548C34.4704 40.2221 35.0728 39.6487 36.0618 39.6487C36.69 39.6487 37.1313 39.8107 37.5404 40.193L37.0798 40.6498C36.7866 40.3679 36.4451 40.2804 36.0424 40.2804C35.4819 40.2804 35.1726 40.6012 35.1726 41.0256C35.1726 41.2005 35.2274 41.3561 35.353 41.4694C35.4722 41.5764 35.6655 41.6574 35.8878 41.693L36.429 41.774C36.8704 41.842 37.1184 41.9489 37.3182 42.1304C37.5791 42.3571 37.708 42.7006 37.708 43.112C37.708 43.9932 36.9896 44.5149 35.9973 44.5149Z" fill="white"/>
<path d="M40.2203 40.3451V44.4758H39.4987V40.3451H38.1875V39.6907H41.5314V40.3451H40.2203Z" fill="white"/>
<path d="M44.618 44.4758L44.2894 43.5136H42.4112L42.0826 44.4758H41.3159L43.062 39.6907H43.6418L45.3847 44.4758H44.6147H44.618ZM43.368 40.7728L42.6271 42.8948H44.0929L43.368 40.7728Z" fill="white"/>
<path d="M48.9123 44.4758L46.7153 41.1097V44.4758H45.9937V39.6907H46.6541L48.8543 43.0536V39.6907H49.576V44.4758H48.9123Z" fill="white"/>
<path d="M53.654 44.0255C53.3512 44.3268 52.9195 44.4758 52.4234 44.4758H50.7515V39.6907H52.4234C52.9195 39.6907 53.3512 39.8397 53.654 40.141C54.1695 40.6594 54.134 41.3592 54.134 42.0492C54.134 42.7393 54.1695 43.5071 53.654 44.0255ZM53.1579 40.6658C52.9582 40.4423 52.6908 40.3451 52.3493 40.3451H51.4731V43.8247H52.3493C52.6908 43.8247 52.9582 43.7242 53.1579 43.5039C53.406 43.2285 53.4124 42.7102 53.4124 42.0525C53.4124 41.3948 53.406 40.9445 53.1579 40.6691" fill="white"/>
<path d="M57.8001 44.4758L57.4747 43.5136H55.5966L55.268 44.4758H54.498L56.2409 39.6907H56.824L58.57 44.4758H57.8001ZM56.5534 40.7728L55.8124 42.8948H57.275L56.5534 40.7728Z" fill="white"/>
<path d="M61.808 44.4758L60.8028 42.4607H59.9008V44.4758H59.1792V39.6907H61.0251C61.9271 39.6907 62.5006 40.2738 62.5006 41.087C62.5006 41.7739 62.085 42.208 61.5535 42.357L62.6488 44.4758H61.808ZM60.9704 40.3451H59.9008V41.8419H60.9704C61.4536 41.8419 61.779 41.5665 61.779 41.0967C61.779 40.627 61.4536 40.3451 60.9704 40.3451Z" fill="white"/>
<path d="M66.3918 44.0255C66.0922 44.3268 65.6573 44.4758 65.1612 44.4758H63.4893V39.6907H65.1612C65.6541 39.6907 66.089 39.8397 66.3918 40.141C66.9073 40.6594 66.8718 41.3592 66.8718 42.0492C66.8718 42.7393 66.9041 43.5071 66.3918 44.0255ZM65.8957 40.6658C65.696 40.4423 65.4286 40.3451 65.0871 40.3451H64.2141V43.8247H65.0871C65.4286 43.8247 65.696 43.7242 65.8957 43.5039C66.1406 43.2285 66.1502 42.7102 66.1502 42.0525C66.1502 41.3948 66.1438 40.9445 65.8957 40.6691" fill="white"/>
<path d="M69.1399 44.5149C68.4248 44.5149 67.9093 44.3464 67.4551 43.8831L67.9351 43.4068C68.283 43.7567 68.6631 43.8637 69.1528 43.8637C69.7746 43.8637 70.1354 43.5948 70.1354 43.1315C70.1354 42.9241 70.0742 42.7492 69.9485 42.6325C69.8293 42.5191 69.7069 42.4705 69.4266 42.4317L68.8661 42.3507C68.4763 42.2988 68.1703 42.1628 67.9641 41.9684C67.7321 41.7448 67.6162 41.4435 67.6162 41.0548C67.6162 40.2221 68.2154 39.6487 69.2044 39.6487C69.8358 39.6487 70.2739 39.8107 70.6798 40.193L70.2191 40.6498C69.9228 40.3679 69.5845 40.2804 69.185 40.2804C68.6245 40.2804 68.3152 40.6012 68.3152 41.0256C68.3152 41.2005 68.37 41.3561 68.4956 41.4694C68.6148 41.5764 68.8081 41.6574 69.0304 41.693L69.5716 41.774C70.013 41.842 70.261 41.9489 70.4607 42.1304C70.7217 42.3571 70.8473 42.7006 70.8473 43.112C70.8473 43.9932 70.1322 44.5149 69.1367 44.5149" fill="white"/>
<path d="M72.4679 43.6562H71.6528V44.4759H72.4679V43.6562Z" fill="white"/>
<path d="M44.518 20.7541C60.9831 20.7541 76.2885 24.0619 89.036 29.7348L44.518 0L0 29.7348C12.7475 24.0619 28.0529 20.7541 44.518 20.7541Z" fill="white"/>
<path d="M47.8264 5.66632C47.1337 4.12094 46.2865 2.74403 45.349 1.57446C45.9933 2.51076 46.5861 3.55398 47.0919 4.68467C49.7206 10.5487 49.1697 16.4937 45.8033 18.0197C43.0456 19.2702 39.109 17.1546 36.332 13.1243C39.1186 17.8091 43.4967 20.3815 46.4991 19.0208C49.8849 17.4851 50.4551 11.5303 47.8296 5.66632" fill="#231F20"/>
<path d="M40.2626 7.74951H40.3109C40.2723 8.23224 40.2529 8.70849 40.2336 9.18474C40.3689 9.18474 40.8102 9.17502 41.2548 9.15558C41.2451 9.22362 41.2451 9.29165 41.2451 9.35969C41.2451 9.42772 41.2451 9.49576 41.2548 9.5638C40.9166 9.54436 40.4655 9.54436 40.2336 9.54436C40.2143 9.64155 40.1659 11.161 40.1659 12.0066C40.1659 12.7323 40.1853 13.471 40.9455 13.471C41.0519 13.471 41.2548 13.4418 41.3804 13.403V13.6362C41.1582 13.714 40.8779 13.782 40.6395 13.782C39.8406 13.782 39.454 13.3284 39.454 12.5703C39.454 11.864 39.512 10.9925 39.5216 9.5476C39.3284 9.5476 39.1157 9.5476 38.8677 9.56704C38.8773 9.48928 38.887 9.42125 38.887 9.34349C38.887 9.27545 38.8773 9.21714 38.8677 9.1491C39.1576 9.16854 39.367 9.17826 39.5023 9.17826C39.4926 8.92556 39.483 8.51086 39.4637 8.09293L40.2626 7.75275V7.74951Z" fill="#231F20"/>
<path d="M42.0662 12.7485C42.2015 13.0109 42.6139 13.4159 43.1551 13.4159C43.6383 13.4159 44.0893 13.1146 44.0893 12.5444C44.0893 11.3424 41.8149 12.052 41.8149 10.4126C41.8149 9.57028 42.3916 8.94824 43.4128 8.94824C43.8831 8.94824 44.1827 9.12319 44.4823 9.22038C44.376 9.40505 44.2697 9.76143 44.2504 9.90722H44.1344C44.0378 9.5962 43.7188 9.30786 43.2872 9.30786C42.9102 9.30786 42.4689 9.55084 42.4689 10.121C42.4689 11.3813 44.7433 10.607 44.7433 12.2431C44.7433 12.9785 44.0796 13.7755 43.0101 13.7755C42.4206 13.7755 42.0372 13.6103 41.7666 13.4548C41.8439 13.2896 41.9502 12.9397 41.9502 12.7485H42.0662Z" fill="#231F20"/>
<path d="M45.8518 6.86841C46.1224 6.86841 46.3447 7.09195 46.3447 7.3641C46.3447 7.63624 46.1224 7.85654 45.8518 7.85654C45.5812 7.85654 45.3589 7.633 45.3589 7.3641C45.3589 7.09519 45.5812 6.86841 45.8518 6.86841ZM45.4942 10.8598C45.4942 10.2799 45.4749 9.59955 45.4169 9.04879C45.5618 9.07795 45.7068 9.09739 45.8518 9.09739C45.9967 9.09739 46.1417 9.07795 46.2867 9.04879C46.2287 9.60279 46.2094 10.2799 46.2094 10.8598V11.8674C46.2094 12.4473 46.2287 13.1277 46.2867 13.6785C46.1417 13.6493 45.9967 13.6299 45.8518 13.6299C45.7068 13.6299 45.5618 13.6493 45.4169 13.6785C45.4749 13.1244 45.4942 12.4473 45.4942 11.8674V10.8598Z" fill="#231F20"/>
<path d="M82.4708 29.722V28.7371H82.1035V28.6042H82.9862V28.7371H82.619V29.722H82.4708Z" fill="white"/>
<path d="M83.1343 29.7218V28.6008H83.3566L83.6207 29.3946C83.6465 29.4691 83.6626 29.5242 83.6723 29.5598C83.6852 29.5209 83.7045 29.4594 83.7303 29.3816L83.9976 28.6041H84.1942V29.725H84.0524V28.7887L83.7303 29.725H83.5982L83.276 28.7725V29.725H83.1343V29.7218Z" fill="white"/>
<path d="M74.8648 44.5179C73.8951 44.5179 73.1606 43.8537 73.1606 42.8656V39.6938H73.8823V42.8332C73.8823 43.4715 74.2688 43.8699 74.8648 43.8699C75.4608 43.8699 75.8538 43.4747 75.8538 42.8332V39.6938H76.5754V42.8656C76.5754 43.8537 75.8345 44.5179 74.8648 44.5179Z" fill="white"/>
<path d="M80.5375 44.479L79.2005 42.1172L78.3984 43.0859V44.479H77.6768V39.6938H78.3984V42.0978L80.3442 39.6938H81.2269L79.6838 41.5665L81.3879 44.479H80.5375Z" fill="white"/>
</g>
<defs>
<clipPath id="clip0_93_87">
<rect width="89.036" height="44.518" fill="white"/>
</clipPath>
</defs>
</svg>
