<svg width="23" height="26" viewBox="0 0 23 26" fill="none" xmlns="http://www.w3.org/2000/svg">
<g clip-path="url(#clip0_93_586)">
<path d="M18.6183 17.4048C17.0648 17.4048 15.7175 18.2024 14.9286 19.4048L8.13179 15.3929C8.50804 14.7619 8.75078 14.0238 8.75078 13.2381C8.75078 12.5357 8.55659 11.881 8.25316 11.2976L15.3291 7.11905C16.1302 8.01191 17.2954 8.59524 18.6062 8.59524C21.0215 8.59524 22.9877 6.66667 22.9877 4.29762C22.9877 1.92857 21.0215 0 18.6062 0C16.1909 0 14.2247 1.92857 14.2247 4.29762C14.2247 4.95238 14.3824 5.55952 14.6495 6.11905L7.5492 10.3214C6.74814 9.4881 5.61938 8.95238 4.35712 8.95238C1.94181 8.95238 -0.0244141 10.881 -0.0244141 13.25C-0.0244141 15.619 1.94181 17.5476 4.35712 17.5476C5.52229 17.5476 6.57822 17.0952 7.36714 16.3571L14.4189 20.5238C14.3096 20.9048 14.2247 21.3095 14.2247 21.7262C14.2247 24.0952 16.1909 26.0238 18.6062 26.0238C21.0215 26.0238 22.9877 24.0952 22.9877 21.7262C22.9877 19.3571 21.0215 17.4286 18.6062 17.4286L18.6183 17.4048ZM18.6183 1.14286C20.3904 1.14286 21.8347 2.55952 21.8347 4.29762C21.8347 6.03571 20.3904 7.45238 18.6183 7.45238C16.8463 7.45238 15.402 6.03571 15.402 4.29762C15.402 2.55952 16.8463 1.14286 18.6183 1.14286ZM4.38139 16.381C2.60936 16.381 1.16503 14.9643 1.16503 13.2262C1.16503 11.4881 2.60936 10.0714 4.38139 10.0714C6.15342 10.0714 7.59775 11.4881 7.59775 13.2262C7.59775 14.9643 6.15342 16.381 4.38139 16.381ZM18.6183 24.8452C16.8463 24.8452 15.402 23.4286 15.402 21.6905C15.402 19.9524 16.8463 18.5357 18.6183 18.5357C20.3904 18.5357 21.8347 19.9524 21.8347 21.6905C21.8347 23.4286 20.3904 24.8452 18.6183 24.8452Z" fill="#17182B"/>
</g>
<defs>
<clipPath id="clip0_93_586">
<rect width="23" height="26" fill="white"/>
</clipPath>
</defs>
</svg>
