<svg width="29" height="31" viewBox="0 0 29 31" fill="none" xmlns="http://www.w3.org/2000/svg">
<g clip-path="url(#clip0_93_604)">
<path d="M29 8.09626H24.5712V0H4.42882V8.09626H0V24.9309H2.38956V26.8197H4.42882V30.9874H24.5712V26.8197H26.6104V24.9309H29V8.09626ZM5.51726 1.09545H23.4827V8.09626H5.51726V1.09545ZM4.42882 9.19171H27.9116V17.3887H1.08844V9.19171H4.42882ZM3.478 25.7242V21.8209H4.41631V20.7254H2.38956V23.8355H1.08844V18.4842H4.42882V25.7242H3.478ZM5.51726 29.892V18.4842H23.4827V29.892H5.51726ZM25.522 25.7242H24.5712V21.8209H25.522V25.7242ZM26.6104 23.8355V20.7254H24.5712V18.4842H27.9116V23.8355H26.6104Z" fill="#17182B"/>
<path d="M21.4057 20.7255H7.59375V21.8209H21.4057V20.7255Z" fill="#231F20"/>
<path d="M21.4057 24.5028H7.59375V25.5983H21.4057V24.5028Z" fill="#231F20"/>
</g>
<defs>
<clipPath id="clip0_93_604">
<rect width="29" height="31" fill="white"/>
</clipPath>
</defs>
</svg>
