<?xml version="1.0" encoding="utf-8"?>
<!-- Generator: Adobe Illustrator 27.8.1, SVG Export Plug-In . SVG Version: 6.00 Build 0)  -->
<svg version="1.1" id="Layer_1" xmlns="http://www.w3.org/2000/svg" xmlns:xlink="http://www.w3.org/1999/xlink" x="0px" y="0px"
	 viewBox="0 0 216.9 215.3" style="enable-background:new 0 0 216.9 215.3;" xml:space="preserve">
<style type="text/css">
	.st0{fill:#FFFFFF;}
</style>
<path class="st0" d="M108.5,1.8C50,1.8,2.6,49.2,2.6,107.6c0,58.5,47.4,105.9,105.9,105.9c58.5,0,105.9-47.4,105.9-105.9
	C214.3,49.2,166.9,1.8,108.5,1.8z M65.2,39.6c9.3,0,16.1,5.5,16.5,13.5c0,8.2-7,14.1-16.5,14.1c-9.4,0-16.5-6-16.5-13.9
	C48.7,45.3,55.6,39.6,65.2,39.6z M81.8,155.5c0,1.5-1.2,2.8-2.8,2.8H51.4c-1.5,0-2.8-1.2-2.8-2.8V75.4c0-1.5,1.2-2.8,2.8-2.8H79
	c1.5,0,2.8,1.2,2.8,2.8V155.5z M175.6,155.5c0,1.5-1.2,2.8-2.8,2.8H148c-1.5,0-2.8-1.2-2.8-2.8v-42.8c0-6.5-5-11.9-11.4-12.4
	c-0.3-0.1-0.7-0.1-1-0.1c-0.3,0-0.7,0-1,0.1c-6.4,0.5-11.4,5.8-11.4,12.4v42.8c0,1.5-1.2,2.8-2.8,2.8H92.8c-1.5,0-2.8-1.2-2.8-2.8
	V75.4c0-1.5,1.2-2.8,2.8-2.8h27.6c1.5,0,2.8,1.2,2.8,2.8v4.1c4.4-3.1,11.8-6.9,21.5-6.9c21.4,0,30.9,18,30.9,35.9V155.5z"/>
</svg>
