<svg width="28" height="27" viewBox="0 0 28 27" fill="none" xmlns="http://www.w3.org/2000/svg">
<g id="Group 63">
<path id="Vector" d="M26.1197 0.611694H1.77144C1.23865 0.611694 0.802734 1.037 0.802734 1.55682V2.97451C0.802734 3.49433 1.23865 3.91963 1.77144 3.91963H2.83701V26.3191H5.04565V3.91963H22.7971V26.3191H25.0057V3.91963H26.1197C26.6525 3.91963 27.0884 3.49433 27.0884 2.97451V1.55682C27.0884 1.037 26.6525 0.611694 26.1197 0.611694Z" fill="#17182B"/>
<path id="Vector_2" d="M20.7822 5.02542H7.10894C6.61407 5.02542 6.21289 5.41683 6.21289 5.89966V6.10286C6.21289 6.58569 6.61407 6.97711 7.10894 6.97711H20.7822C21.277 6.97711 21.6782 6.58569 21.6782 6.10286V5.89966C21.6782 5.41683 21.277 5.02542 20.7822 5.02542Z" fill="#17182B"/>
<path id="Vector_3" d="M20.7822 8.20578H7.10894C6.61407 8.20578 6.21289 8.59719 6.21289 9.08002V9.28322C6.21289 9.76605 6.61407 10.1575 7.10894 10.1575H20.7822C21.277 10.1575 21.6782 9.76605 21.6782 9.28322V9.08002C21.6782 8.59719 21.277 8.20578 20.7822 8.20578Z" fill="#17182B"/>
<path id="Vector_4" d="M17.7161 10.9797L10.0828 11.0411L6.26123 17.5436V24.8967C6.26123 25.2606 6.56153 25.5535 6.92963 25.5535H8.03395C8.4069 25.5535 8.7072 25.2606 8.7072 24.8967V23.6633H10.0246L10.1942 23.9468L17.8275 23.8807L17.9583 23.6633H19.1595V24.8967C19.1595 25.2606 19.4598 25.5535 19.8327 25.5535H20.9371C21.3052 25.5535 21.6055 25.2606 21.6055 24.8967V17.5578L21.6248 17.5247L17.7161 10.9797ZM9.59841 21.0122C8.91547 21.0122 8.35847 20.4735 8.35847 19.8025C8.35847 19.1314 8.91547 18.5927 9.59841 18.5927C10.2813 18.5927 10.8383 19.1361 10.8383 19.8025C10.8383 20.4688 10.2862 21.0122 9.59841 21.0122ZM16.9702 22.7796H10.8674C10.4654 22.7796 10.1312 22.4583 10.1312 22.0613C10.1312 21.6644 10.4654 21.343 10.8674 21.343H16.9702C17.3771 21.343 17.7064 21.6691 17.7064 22.0613C17.7064 22.4535 17.3771 22.7796 16.9702 22.7796ZM18.2441 21.0122C17.5611 21.0122 17.0041 20.4735 17.0041 19.8025C17.0041 19.1314 17.5611 18.5927 18.2441 18.5927C18.927 18.5927 19.484 19.1361 19.484 19.8025C19.484 20.4688 18.9318 21.0122 18.2441 21.0122ZM8.34878 16.3764L10.756 12.232L17.0719 12.18L19.576 16.3764H8.34878Z" fill="#17182B"/>
</g>
</svg>
